<?xml version="1.0" standalone="no"?>
<!DOCTYPE svg PUBLIC "-//W3C//DTD SVG 20010904//EN"
 "http://www.w3.org/TR/2001/REC-SVG-20010904/DTD/svg10.dtd">
<svg version="1.0" xmlns="http://www.w3.org/2000/svg"
 width="1024.000000pt" height="1024.000000pt" viewBox="0 0 1024.000000 1024.000000"
 preserveAspectRatio="xMidYMid meet">

<g transform="translate(0.000000,1024.000000) scale(0.100000,-0.100000)"
fill="#000000" stroke="none">
<path d="M4345 8623 c-135 -71 -335 -384 -487 -761 l-13 -33 -94 111 c-171
201 -343 354 -534 474 -214 134 -295 127 -382 -29 -105 -191 -202 -587 -221
-903 -4 -67 -11 -122 -16 -122 -4 0 -77 15 -161 34 -286 65 -535 100 -804 112
-166 8 -211 -2 -264 -55 -27 -27 -39 -48 -44 -81 -14 -96 51 -368 135 -562 22
-51 36 -95 32 -99 -4 -4 -32 -15 -62 -24 -88 -29 -288 -113 -375 -158 -179
-93 -212 -190 -102 -299 99 -97 431 -302 659 -408 53 -25 97 -48 98 -51 0 -3
-39 -11 -87 -18 -321 -45 -861 -214 -1023 -320 -97 -64 -125 -154 -70 -231 42
-60 342 -246 618 -384 172 -87 470 -215 650 -281 56 -21 100 -41 96 -44 -3 -3
-320 -8 -704 -11 -686 -5 -699 -5 -727 -26 -40 -29 -65 -85 -71 -160 -4 -60
-8 -67 -39 -91 -19 -14 -46 -47 -61 -72 l-27 -46 0 -307 0 -306 -70 -21 c-49
-14 -80 -30 -100 -51 -43 -44 -46 -137 -12 -280 42 -173 86 -249 171 -292 82
-42 220 -33 277 18 14 12 19 11 40 -12 13 -14 44 -38 69 -52 l45 -27 250 0
c280 0 286 1 327 71 l20 34 67 -6 c36 -4 69 -9 73 -13 4 -3 10 -35 13 -71 18
-188 88 -357 200 -478 l67 -72 -425 0 -425 0 -31 -26 c-23 -19 -31 -34 -31
-58 0 -44 18 -65 65 -76 24 -6 1731 -10 4280 -10 3398 0 4245 3 4265 13 38 19
55 61 39 98 -23 58 -38 60 -369 57 -165 -2 -300 -1 -300 2 0 3 23 28 52 55
122 118 200 294 216 489 l7 79 79 -2 c54 -2 91 -8 116 -21 138 -70 295 -64
411 16 l37 25 36 -25 c66 -44 167 -46 253 -5 80 39 141 152 177 331 39 191 3
269 -139 298 l-50 10 0 303 c0 292 -1 303 -22 343 -12 23 -42 59 -66 80 l-44
39 -5 85 c-6 93 -27 150 -79 213 -62 75 -34 71 -619 77 l-525 5 104 39 c336
125 734 334 928 488 100 79 115 156 47 238 -85 100 -542 262 -1009 355 -125
26 -143 31 -134 39 2 2 82 42 178 90 277 139 537 314 598 405 29 43 30 102 2
147 -39 64 -199 154 -449 251 -63 25 -117 47 -119 48 -1 2 16 49 39 105 78
190 138 487 116 574 -12 48 -62 93 -118 107 -139 33 -668 -23 -1029 -110
l-116 -27 -17 165 c-32 309 -88 554 -172 749 -110 259 -186 285 -423 142 -202
-121 -364 -265 -549 -488 -47 -56 -86 -101 -88 -100 -1 2 -25 55 -53 118 -102
232 -189 382 -310 532 -105 130 -171 169 -253 148 -35 -9 -62 -31 -143 -113
-194 -198 -392 -518 -490 -790 l-28 -77 -39 97 c-119 297 -274 554 -452 749
-119 130 -204 168 -281 127z m115 -219 c129 -117 327 -434 442 -709 63 -151
137 -394 173 -575 25 -124 69 -430 62 -437 -6 -5 -67 18 -67 25 0 4 -14 7 -30
8 -17 1 -32 3 -35 5 -2 2 -6 49 -10 104 -23 377 -120 646 -305 848 -60 66
-107 97 -170 113 -37 9 -45 15 -46 35 -5 109 -5 330 1 354 9 40 -22 73 -53 56
-26 -14 -36 -45 -24 -68 6 -10 12 -97 13 -192 l4 -175 -31 -6 c-47 -10 -97
-44 -153 -105 -136 -150 -214 -367 -228 -637 l-6 -118 -43 0 -44 0 0 53 c0
134 69 429 156 665 53 145 204 445 277 551 62 88 73 121 41 121 -13 0 -86 -94
-146 -186 -38 -60 -150 -286 -197 -398 -79 -189 -145 -423 -181 -636 -20 -120
-27 -78 -10 60 42 333 219 821 396 1085 57 85 150 195 165 195 5 0 27 -16 49
-36z m1406 -9 c85 -88 214 -302 300 -495 129 -293 216 -611 229 -838 l5 -87
-24 130 c-56 309 -138 560 -270 825 -109 219 -236 404 -264 386 -21 -13 -13
-43 23 -86 98 -118 248 -408 329 -638 84 -237 162 -635 129 -655 -5 -3 -23 -7
-42 -9 l-34 -3 -3 55 c-10 151 -17 210 -34 284 -22 89 -65 208 -104 283 -59
114 -175 223 -253 239 l-33 7 0 178 c0 108 4 180 10 184 17 10 11 51 -9 69
-18 16 -20 16 -47 -7 -26 -22 -27 -27 -16 -51 13 -30 16 -144 6 -284 -6 -75
-10 -92 -23 -92 -31 0 -121 -49 -166 -91 -101 -93 -189 -250 -260 -463 -24
-71 -46 -123 -49 -115 -3 7 -10 41 -16 74 -10 57 -8 66 24 155 64 180 84 225
151 360 98 197 166 308 307 501 47 65 61 109 35 109 -13 0 -127 -146 -204
-260 -95 -140 -272 -482 -313 -604 -26 -79 -40 -101 -40 -65 0 47 105 312 190
478 77 150 149 268 251 408 44 61 146 163 163 163 5 0 29 -20 52 -45z m-2814
-94 c37 -14 225 -155 336 -252 106 -93 244 -246 323 -359 58 -82 62 -90 51
-90 -5 0 -36 33 -68 73 -75 93 -234 257 -301 309 -97 74 -77 30 45 -100 137
-146 192 -213 262 -317 46 -68 50 -78 44 -115 l-7 -41 -91 89 c-169 163 -231
202 -338 210 l-67 5 -55 166 c-30 91 -54 181 -53 199 1 56 -59 72 -77 21 -7
-20 -4 -32 12 -55 18 -25 112 -311 112 -339 0 -5 -19 -21 -41 -35 -51 -31 -99
-96 -143 -192 -47 -101 -66 -198 -73 -370 -5 -138 -7 -147 -27 -152 -46 -12
-46 -11 -46 107 0 361 108 963 193 1078 15 22 17 31 8 48 -13 24 -33 27 -49 9
-14 -18 -87 -245 -111 -348 -42 -175 -99 -588 -102 -730 l-2 -65 -7 50 c-8 63
4 320 25 494 33 285 122 617 187 699 12 14 28 15 60 3z m4184 1 c36 -24 113
-250 160 -467 39 -184 54 -329 59 -575 4 -234 0 -220 -25 80 -22 272 -90 601
-156 758 -42 98 -56 117 -78 109 -22 -9 -20 -49 3 -79 93 -117 211 -800 186
-1076 -7 -80 -7 -80 -33 -78 -27 3 -27 4 -29 87 -7 301 -94 538 -224 612 -26
15 -37 27 -33 37 3 8 21 78 41 155 19 77 44 155 55 174 31 55 5 106 -42 81
-13 -7 -19 -24 -22 -62 -3 -29 -24 -119 -48 -200 l-43 -148 -56 0 c-108 -1
-204 -54 -343 -191 -96 -95 -108 -100 -108 -48 0 34 35 91 125 199 124 150
361 390 453 457 44 32 62 52 62 70 0 80 -362 -249 -633 -576 -15 -18 -31 -31
-34 -27 -13 13 28 76 125 198 149 185 373 390 530 484 55 33 86 41 108 26z
m-2708 -582 c53 -24 143 -108 192 -180 139 -205 227 -540 191 -728 -10 -49
-21 -65 -42 -57 -11 4 -14 36 -15 163 0 139 -3 168 -28 257 -78 285 -252 515
-389 515 -92 0 -231 -194 -283 -395 -19 -73 -26 -297 -12 -362 6 -26 4 -33 -7
-33 -32 0 -48 49 -53 158 -9 233 67 452 210 601 76 78 153 99 236 61z m1358
-15 c106 -62 213 -240 255 -425 31 -135 27 -323 -7 -362 -25 -26 -48 -24 -39
5 14 45 17 225 6 292 -26 149 -104 316 -186 401 -134 137 -254 74 -413 -216
-86 -158 -137 -366 -130 -537 3 -78 0 -104 -10 -108 -24 -9 -36 48 -36 175 0
137 16 216 78 381 78 208 216 382 334 419 39 13 101 2 148 -25z m-2491 -84
c146 -72 343 -296 328 -374 -5 -26 -6 -26 -47 32 -144 208 -318 339 -425 323
-69 -10 -153 -130 -188 -269 -12 -49 -17 -112 -17 -220 0 -150 -1 -153 -22
-153 -28 0 -34 30 -34 160 0 211 53 375 155 476 28 29 63 54 76 57 46 10 114
-3 174 -32z m3643 13 c134 -67 212 -258 212 -520 l0 -134 -27 0 -28 0 -1 143
c-1 204 -40 336 -127 425 -70 71 -139 75 -237 12 -63 -40 -192 -177 -249 -263
-46 -69 -61 -76 -61 -27 0 59 161 253 273 329 97 66 164 75 245 35z m-2501
-270 c58 -12 82 -42 92 -119 18 -132 24 -285 11 -285 -7 0 -5 -6 4 -16 20 -19
21 -35 2 -28 -11 4 -13 0 -9 -15 3 -11 9 -18 14 -15 5 3 9 3 9 0 0 -3 -13 -12
-30 -21 -16 -9 -30 -12 -30 -9 0 4 -9 -1 -20 -11 -11 -10 -20 -16 -20 -13 0 8
38 49 44 48 17 -4 25 6 16 20 -8 13 -11 12 -23 -4 -9 -12 -19 -16 -27 -11 -7
5 -11 4 -7 -1 3 -5 -1 -18 -9 -29 -14 -19 -16 -19 -25 -2 -11 18 -44 23 -54 7
-3 -5 -12 -10 -18 -10 -7 0 -4 5 6 11 16 9 16 12 2 26 -9 9 -14 22 -11 29 3 7
1 16 -4 19 -6 4 -10 -1 -10 -9 0 -9 -4 -16 -10 -16 -5 0 -10 6 -10 13 0 7 -9
18 -21 25 -18 12 -19 11 -10 -7 6 -11 8 -21 3 -24 -4 -2 -2 -2 5 -1 7 2 15 -1
18 -6 4 -6 -1 -10 -9 -10 -10 0 -13 -6 -9 -17 4 -10 2 -14 -4 -10 -6 4 -14 1
-17 -5 -3 -7 -3 -3 0 10 6 23 -5 29 -22 12 -7 -7 -11 -7 -11 2 -1 7 -4 33 -7
58 -13 99 -24 324 -16 344 23 60 116 90 217 70z m1334 -20 c63 -32 66 -52 38
-314 -17 -158 -17 -159 -49 -158 -22 1 -25 4 -16 13 7 9 15 10 24 3 8 -7 12
-7 12 1 0 6 -4 11 -10 11 -5 0 -10 9 -10 19 0 11 -4 22 -8 25 -5 3 -8 -5 -7
-17 3 -30 -33 -66 -46 -46 -5 8 -9 22 -9 31 0 14 -5 16 -22 9 -13 -4 -28 -6
-35 -4 -6 2 -14 0 -17 -6 -4 -6 -13 -8 -21 -4 -11 4 -13 1 -9 -11 4 -9 1 -16
-6 -16 -8 0 -10 9 -6 25 4 15 2 25 -4 25 -6 0 -8 5 -4 11 5 8 13 4 24 -11 13
-17 18 -19 22 -8 7 18 -39 41 -49 25 -5 -7 -8 -21 -8 -31 0 -11 -5 -21 -12
-23 -7 -3 -10 3 -6 15 3 14 -2 21 -16 25 -12 3 -21 1 -21 -4 0 -5 7 -9 15 -9
8 0 15 -3 15 -7 -1 -9 -25 -43 -31 -43 -3 0 -5 8 -6 18 0 9 -3 34 -6 55 -5 28
-3 36 6 30 7 -4 17 -8 22 -8 6 -1 9 -6 8 -13 -3 -14 13 -16 21 -3 3 4 -10 16
-29 27 -25 13 -33 23 -30 39 2 11 9 74 16 140 15 158 27 183 99 209 25 9 141
-4 171 -20z m-4080 -25 c240 -24 525 -75 732 -130 l78 -21 -3 -117 -3 -116
-100 -12 c-143 -17 -148 -17 -140 7 3 10 12 47 18 80 7 33 16 58 20 54 9 -9
47 25 47 41 0 23 -39 63 -67 68 -53 10 -82 -28 -57 -74 7 -13 13 -18 14 -11 0
6 4 12 8 12 6 0 -16 -115 -34 -178 -2 -7 -20 -20 -40 -28 -42 -18 -27 -25
-341 163 -183 110 -223 126 -223 90 0 -20 212 -157 349 -226 31 -16 63 -36 69
-44 11 -13 5 -16 -40 -23 -29 -5 -60 -9 -68 -9 -8 0 -17 -3 -20 -7 -3 -4 -21
-10 -40 -13 -67 -10 -135 -24 -170 -34 -43 -13 -49 -14 -30 -1 8 5 10 10 5 10
-6 0 -18 -9 -28 -20 -37 -43 -50 -26 -124 165 -36 95 -65 189 -90 293 -21 86
-14 92 92 92 46 0 129 -5 186 -11z m6929 -4 c8 -9 10 -29 5 -57 -12 -74 -71
-268 -116 -381 -41 -104 -43 -108 -68 -102 -14 4 -27 8 -29 9 -1 2 15 48 37
103 22 55 49 135 60 177 11 42 23 81 27 87 12 20 -6 59 -31 65 -48 12 -75 -45
-39 -80 21 -22 7 -64 -44 -132 -52 -67 -129 -186 -100 -153 13 14 28 34 34 44
8 15 12 16 19 5 6 -9 4 -11 -4 -6 -9 6 -12 -1 -9 -25 2 -25 8 -34 20 -33 13 1
17 -5 16 -22 -1 -13 -3 -24 -5 -24 -1 0 -67 15 -145 34 -79 19 -164 37 -190
41 l-48 7 168 100 c217 130 254 156 250 176 -5 27 -21 23 -98 -22 -432 -252
-407 -239 -448 -229 -33 8 -39 14 -54 58 -29 87 -33 134 -13 149 10 7 16 22
13 37 -7 52 -128 23 -128 -31 0 -37 11 -50 36 -44 21 5 24 3 24 -23 0 -17 6
-51 14 -76 8 -26 11 -49 8 -51 -4 -1 -60 4 -124 12 l-118 15 0 107 c0 70 4
112 13 122 22 28 449 112 702 137 61 6 124 13 140 15 17 1 71 4 121 5 70 1 94
-3 104 -14z m-5276 -7 c14 -6 32 -21 41 -34 26 -40 76 -175 69 -186 -4 -7 -2
-8 4 -4 11 7 13 3 16 -36 1 -7 5 -16 9 -19 15 -11 15 -56 0 -56 -7 0 -13 6
-13 14 0 7 5 13 11 13 5 0 7 5 4 10 -3 6 -11 10 -16 10 -6 0 -7 -4 -4 -10 3
-5 1 -10 -5 -10 -7 0 -10 -7 -6 -15 3 -8 1 -15 -4 -15 -6 0 -10 5 -10 11 0 8
-4 9 -13 0 -8 -6 -16 -9 -18 -6 -3 2 -60 5 -127 6 -88 1 -122 4 -119 13 3 6
10 10 17 8 11 -3 11 0 1 12 -7 8 -18 13 -26 10 -9 -4 -19 22 -36 90 l-23 96
20 27 c24 33 76 60 136 72 61 12 64 12 92 -1z m3510 -21 c94 -43 104 -84 54
-234 -18 -54 -27 -69 -45 -71 -13 -2 -23 2 -23 9 0 8 -4 8 -12 1 -7 -5 -36 -9
-65 -9 -45 1 -50 3 -40 17 11 13 10 13 -7 0 -21 -16 -153 -23 -162 -9 -3 5 1
19 8 31 7 13 13 36 14 51 1 16 9 43 17 60 9 18 24 54 33 81 10 27 29 62 43 79
23 27 28 29 78 24 29 -3 77 -17 107 -30z m-1213 -389 c0 -10 2 -10 6 0 7 17
30 15 37 -4 11 -28 6 -40 -14 -40 -11 0 -20 4 -20 8 0 4 7 8 15 8 8 0 15 5 15
11 0 6 -7 9 -15 5 -18 -6 -45 2 -45 15 0 14 20 11 21 -3z m-1298 -11 c5 -15
-20 -41 -28 -28 -6 11 4 41 15 41 4 0 10 -6 13 -13z m1227 -33 c0 -2 -7 -4
-15 -4 -8 0 -15 4 -15 10 0 5 7 7 15 4 8 -4 15 -8 15 -10z m-1020 -22 c0 -15
-2 -15 -10 -2 -13 20 -13 33 0 25 6 -3 10 -14 10 -23z m1040 8 c0 -5 -5 -10
-11 -10 -5 0 -7 5 -4 10 3 6 8 10 11 10 2 0 4 -4 4 -10z m-1070 -10 c0 -5 -2
-10 -4 -10 -3 0 -8 5 -11 10 -3 6 -1 10 4 10 6 0 11 -4 11 -10z m2615 -40
c245 -11 351 -21 535 -49 69 -11 175 -27 235 -36 131 -19 386 -76 505 -112
195 -58 269 -82 341 -111 98 -39 268 -122 275 -134 9 -14 -18 -36 -144 -117
-197 -126 -573 -297 -801 -362 -100 -29 -373 -89 -521 -114 -74 -13 -189 -33
-255 -45 -252 -45 -750 -91 -1002 -94 -137 -1 -142 0 -167 23 -14 14 -26 27
-26 30 0 3 75 6 168 6 243 0 403 6 398 14 -3 4 47 8 111 9 64 1 134 7 156 13
22 6 52 11 68 11 25 1 29 5 29 31 l0 30 26 -27 c29 -28 45 -31 90 -16 16 5
106 21 199 35 94 15 237 39 318 56 82 16 159 29 171 29 35 0 320 84 436 128
144 55 344 142 409 177 51 28 77 49 109 89 15 19 16 68 0 84 -33 33 -75 -5
-63 -59 6 -25 4 -29 -14 -29 -11 0 -23 -5 -26 -11 -4 -6 -13 -8 -21 -5 -7 3
-18 -3 -24 -12 -8 -15 -11 -15 -20 -2 -8 13 -10 13 -10 -2 0 -10 -6 -19 -12
-19 -7 -1 -20 -2 -28 -3 -8 0 -14 -6 -13 -12 1 -6 -3 -11 -10 -11 -7 0 -43
-15 -81 -33 -38 -19 -84 -34 -102 -34 -17 -1 -30 -4 -28 -8 2 -4 -4 -9 -13
-12 -184 -54 -386 -105 -396 -99 -5 3 -6 12 -3 20 4 9 2 11 -5 7 -7 -4 -10 -1
-7 7 3 8 11 13 17 11 7 -1 10 2 6 8 -3 6 -11 8 -16 5 -5 -4 -9 15 -9 42 0 26
-3 76 -5 110 -2 34 0 65 5 68 6 4 535 15 753 15 30 0 37 4 37 19 0 10 -7 22
-16 25 -9 3 -186 6 -395 6 l-379 0 -2 105 c-1 58 -2 112 -2 120 -1 8 3 15 8
14 20 -2 28 32 12 55 -18 29 -56 39 -90 26 -35 -13 -38 -67 -3 -72 21 -3 22
-7 25 -125 l3 -123 -167 0 -166 0 -171 163 c-111 105 -170 168 -169 179 2 10
-2 26 -8 38 -22 41 -120 17 -120 -30 0 -24 25 -43 47 -36 13 4 63 -38 191
-162 95 -92 172 -174 172 -182 0 -16 -77 -118 -149 -197 -23 -24 -53 -59 -67
-78 -14 -19 -30 -32 -35 -29 -5 3 -9 -1 -9 -8 0 -26 -94 -128 -117 -128 -27 0
-63 -33 -63 -57 0 -15 -2 -16 -9 -3 -6 8 -7 18 -5 22 3 4 -1 8 -9 8 -10 0 -13
-7 -10 -20 3 -11 0 -20 -6 -20 -6 0 -11 8 -11 19 0 14 -7 18 -29 17 -16 -1
-27 -4 -24 -8 2 -5 -3 -8 -12 -8 -8 0 -20 -10 -25 -22 -5 -13 -9 -17 -9 -9 -1
11 -6 10 -26 -3 -14 -9 -64 -26 -112 -37 -108 -26 -179 -23 -458 20 -110 17
-217 31 -237 31 -20 0 -40 5 -43 10 -3 6 -21 10 -38 10 -25 0 -28 3 -17 10 11
7 6 8 -16 4 -17 -3 -41 -1 -52 5 -14 7 -23 8 -27 1 -3 -5 -12 -10 -18 -10 -7
0 -6 4 3 11 11 8 6 9 -20 5 -37 -7 -142 12 -135 24 2 4 -7 6 -21 4 -14 -1 -39
2 -56 7 -21 6 -36 5 -45 -2 -7 -6 -13 -9 -13 -6 0 3 20 20 44 36 39 27 45 29
62 16 11 -8 14 -15 9 -15 -6 0 -17 6 -25 13 -12 10 -12 9 -2 -4 6 -9 8 -19 4
-24 -4 -4 3 -3 14 3 12 6 25 8 30 4 5 -4 -1 5 -14 19 l-23 27 22 16 c12 8 26
13 31 10 5 -3 7 -2 6 3 -2 4 18 29 43 54 72 71 84 167 32 250 -34 52 -166 142
-333 225 -87 43 -159 82 -159 85 -1 9 365 87 586 124 303 51 385 63 529 75
237 19 445 22 719 10z m-3564 -10 c258 -21 935 -137 1159 -200 323 -91 631
-218 812 -336 38 -24 71 -51 75 -59 8 -21 -19 -49 -102 -105 -168 -112 -339
-189 -567 -254 -163 -46 -386 -83 -441 -72 -24 5 -28 3 -17 -5 11 -8 5 -9 -28
-6 -23 3 -40 2 -38 -2 3 -4 -23 -13 -57 -20 -72 -14 -161 -41 -232 -69 -99
-38 -647 -36 -980 4 -323 39 -771 112 -980 160 -251 58 -639 203 -841 315
-128 71 -318 192 -329 208 -17 29 296 155 580 235 177 49 202 55 360 90 208
46 603 98 905 119 115 8 600 6 721 -3z m4319 -190 c0 -5 -4 -10 -10 -10 -5 0
-10 5 -10 10 0 6 5 10 10 10 6 0 10 -4 10 -10z m-26 -437 c-7 -146 -7 -146
-43 -141 -21 3 -28 1 -24 -9 3 -8 12 -12 19 -9 9 3 14 -2 14 -14 0 -15 -13
-21 -72 -34 -148 -31 -190 -38 -204 -32 -9 3 -12 1 -9 -4 3 -6 -3 -10 -15 -10
-12 0 -91 -16 -176 -35 -175 -40 -192 -42 -174 -21 6 8 19 12 28 9 14 -4 15
-3 2 6 -12 8 -10 15 14 40 16 17 33 28 38 25 5 -3 8 -2 7 3 -4 22 2 25 16 7
11 -14 14 -15 9 -3 -3 10 -1 20 5 24 6 3 11 12 11 18 0 7 -4 6 -10 -3 -5 -8
-10 -11 -10 -6 0 6 17 30 38 55 21 25 76 92 121 149 l83 102 169 0 168 0 -5
-117z m-2174 -344 l125 -7 -130 3 c-73 1 -141 7 -155 14 -24 11 -24 11 5 5 17
-4 86 -11 155 -15z m1245 -31 c6 -4 2 -8 -7 -8 -10 0 -18 7 -18 17 0 9 3 12 8
7 4 -5 12 -12 17 -16z m-105 -48 c0 -5 -2 -10 -4 -10 -3 0 -8 5 -11 10 -3 6
-1 10 4 10 6 0 11 -4 11 -10z m-24 -12 c4 -6 3 -8 -3 -5 -6 4 -25 2 -43 -3
-19 -5 -36 -8 -38 -5 -2 2 11 8 29 14 46 13 47 13 55 -1z m-4581 -117 c83 -16
174 -33 203 -37 49 -6 74 -24 33 -24 -45 0 -201 -54 -261 -91 -36 -21 -81 -59
-100 -83 -34 -43 -36 -43 -86 -38 -38 3 -54 0 -67 -13 -26 -25 -21 -49 18 -87
l35 -34 -20 -60 c-28 -82 -72 -164 -88 -164 -17 0 -202 49 -214 56 -4 3 -8 39
-8 80 l0 74 120 0 120 0 0 30 0 30 -119 0 -120 0 -3 100 c-2 74 0 100 9 100
21 0 35 37 23 60 -12 23 -78 28 -98 8 -18 -18 -15 -68 3 -68 12 0 15 -18 15
-100 l0 -99 -322 -3 c-298 -3 -324 -2 -337 15 -17 21 -39 22 -63 0 -46 -41
-15 -70 177 -166 243 -122 488 -215 512 -195 10 8 11 14 3 22 -5 5 -10 31 -10
57 l0 47 -77 6 c-123 9 -146 12 -187 26 l-39 13 24 13 24 14 -25 -3 c-14 -1
-31 -6 -38 -11 -7 -4 -19 -5 -26 -3 -8 3 -26 -1 -41 -9 -15 -8 -30 -12 -33 -9
-3 3 0 5 6 5 7 0 12 4 12 9 0 4 -12 7 -26 5 -35 -3 -54 5 -55 25 0 9 -3 11 -5
4 -3 -7 -12 -9 -20 -6 -10 4 -12 9 -4 18 8 9 4 11 -17 9 l-28 -4 28 11 c35 14
35 27 0 23 -19 -2 -21 -1 -8 3 17 5 15 8 -15 20 -31 12 -14 13 149 8 101 -3
242 -5 313 -5 l128 0 0 -64 c0 -41 -4 -66 -12 -68 -15 -5 -120 12 -133 22 -5
4 -30 10 -55 13 l-45 6 48 -11 c26 -6 47 -15 47 -20 0 -4 13 -8 29 -8 17 0 33
-4 36 -10 3 -5 23 -10 43 -10 28 0 33 -3 22 -10 -10 -6 -11 -10 -2 -10 6 0 12
-9 12 -20 0 -11 -4 -20 -10 -20 -14 0 -12 -48 2 -52 8 -3 7 -11 -5 -28 -9 -14
-17 -39 -17 -57 0 -18 -3 -33 -6 -33 -29 0 -491 206 -634 283 -115 62 -321
198 -314 208 32 53 597 231 881 279 111 18 536 68 553 64 8 -1 83 -16 165 -33z
m5993 4 c301 -36 499 -78 782 -164 214 -65 400 -141 400 -163 0 -19 -229 -157
-420 -253 -184 -92 -516 -234 -524 -223 -7 8 7 87 15 83 13 -9 326 118 474
192 165 81 209 111 213 144 7 55 -72 66 -84 11 -3 -15 -7 -32 -9 -39 -2 -6
-23 -14 -47 -18 -24 -4 -63 -16 -87 -26 -24 -10 -47 -16 -52 -13 -5 3 -9 0 -9
-6 0 -7 -12 -10 -27 -9 -16 2 -39 -3 -52 -10 -14 -8 -21 -9 -17 -2 4 6 2 11
-3 11 -6 0 -11 -5 -11 -11 0 -6 -9 -8 -21 -4 -13 5 -19 3 -15 -3 3 -5 -21 -16
-57 -25 -56 -14 -60 -14 -42 0 19 15 19 15 -5 9 -14 -3 -33 -6 -44 -6 -14 0
-17 -5 -13 -21 3 -13 1 -19 -6 -16 -7 3 -11 10 -9 16 2 12 -50 7 -94 -10 -12
-4 -25 -5 -28 -2 -3 4 -6 35 -6 70 l0 63 63 0 c136 0 514 11 545 16 24 4 32
10 30 22 -3 15 -32 17 -321 20 l-317 2 0 100 c0 75 3 99 13 98 18 -4 21 56 3
71 -21 18 -75 17 -93 -2 -19 -19 -10 -67 12 -67 12 0 15 -18 15 -100 l0 -99
-122 -3 -123 -3 0 -25 0 -25 123 -3 122 -3 0 -78 0 -79 -107 -26 c-60 -14
-113 -26 -119 -26 -11 0 -31 38 -74 141 l-28 66 35 50 c30 43 33 52 23 78 -10
27 -11 28 -74 22 l-64 -6 -27 39 c-49 70 -210 157 -325 175 -59 9 -86 24 -45
25 40 0 166 23 295 54 58 14 114 23 125 21 11 -2 116 -16 233 -30z m-2257 -4
c39 -12 89 -47 89 -62 0 -5 -230 -9 -577 -10 -715 0 -903 -8 -991 -40 -78 -29
-133 -74 -160 -133 -66 -140 -191 -773 -217 -1098 l-7 -78 -80 0 -81 0 7 95
c13 191 149 928 207 1120 42 142 116 192 317 215 114 12 1448 4 1493 -9z
m-3207 -111 c34 -5 149 -21 256 -36 204 -27 248 -39 317 -86 144 -97 171 -291
56 -400 -25 -24 -112 -68 -134 -68 -22 0 -5 23 49 65 74 57 102 106 102 174 0
129 -111 226 -310 268 -120 26 -444 25 -545 -1 -199 -52 -355 -204 -343 -335
11 -109 112 -233 240 -295 132 -63 434 -127 601 -126 226 1 395 76 465 204 16
30 27 57 25 60 -3 2 -30 -15 -61 -39 -174 -132 -319 -169 -569 -145 -123 11
-324 54 -397 85 -111 47 -208 140 -236 227 -19 60 -8 80 18 32 11 -23 44 -67
73 -98 110 -121 359 -196 649 -196 144 0 224 16 319 63 125 61 183 149 189
284 4 75 1 88 -26 145 -16 35 -47 80 -67 101 -21 21 -36 39 -34 41 10 9 528
-61 550 -75 10 -6 10 -17 -2 -56 -14 -44 -20 -51 -89 -90 -63 -36 -81 -42
-111 -37 -31 5 -39 3 -48 -14 -26 -48 5 -100 53 -88 19 5 34 -3 76 -40 l51
-47 -39 -22 c-22 -12 -85 -57 -141 -99 -61 -46 -106 -74 -114 -70 -6 4 -9 4
-5 -1 8 -8 -44 -58 -77 -74 -83 -39 -124 -54 -147 -55 -14 -1 -23 -5 -20 -10
3 -5 -2 -7 -11 -3 -10 4 -17 2 -17 -4 0 -7 -11 -9 -25 -7 -13 3 -22 1 -19 -4
3 -5 -6 -7 -20 -4 -14 3 -29 0 -32 -6 -4 -6 -10 -5 -15 3 -6 9 -9 10 -9 2 0
-8 -23 -11 -71 -9 -39 1 -73 -2 -75 -6 -3 -5 -10 -8 -15 -8 -6 0 -8 4 -4 9 3
6 -7 6 -27 0 -17 -5 -34 -5 -37 -1 -4 4 -41 8 -84 10 -43 2 -102 10 -130 18
-29 8 -99 28 -157 43 -58 16 -152 47 -210 69 -77 30 -108 38 -118 30 -9 -8
-20 -5 -40 14 -15 14 -43 33 -62 43 -19 10 -47 29 -62 42 -16 16 -33 23 -43
19 -9 -3 -14 -2 -11 3 7 11 -22 23 -36 14 -6 -3 -8 -1 -5 4 7 11 -22 28 -31
18 -3 -3 0 -5 6 -5 7 0 12 -9 12 -20 0 -23 -10 -26 -28 -8 -10 10 -15 10 -22
-2 -6 -9 -5 -19 0 -24 13 -13 13 -29 0 -21 -6 3 -24 -9 -41 -27 -30 -32 -29
-31 8 32 53 88 123 236 123 260 0 10 5 22 10 25 6 3 10 -1 10 -9 0 -20 10 -20
38 0 26 18 28 38 7 78 -15 28 -14 30 28 75 23 25 50 56 58 68 27 39 283 122
435 142 38 5 73 9 78 10 5 0 37 -3 70 -9z m4753 -14 c76 -17 165 -44 264 -81
55 -21 75 -36 129 -96 55 -62 62 -74 52 -90 -7 -10 -12 -32 -12 -49 0 -23 7
-33 31 -46 l32 -16 -7 27 c-4 17 -3 24 4 20 5 -3 10 -14 10 -23 0 -9 18 -53
40 -96 22 -44 39 -81 37 -82 -1 -1 -38 -19 -82 -39 -44 -21 -81 -42 -83 -46
-2 -4 -19 -13 -38 -19 -19 -6 -34 -16 -34 -21 0 -5 -7 -9 -15 -9 -8 0 -15 -6
-15 -14 0 -7 -7 -20 -16 -27 -13 -11 -17 -10 -26 4 -9 17 -11 17 -42 -3 -19
-11 -38 -20 -45 -20 -18 0 -111 -43 -111 -52 0 -4 9 -4 20 2 11 5 29 15 40 20
23 12 44 4 34 -12 -5 -7 -2 -8 5 -3 8 4 23 -4 41 -24 43 -47 99 -42 118 10 9
22 20 27 103 42 52 10 127 25 167 34 l74 17 19 -24 c10 -14 19 -28 19 -31 0
-7 -157 -52 -285 -81 -73 -17 -131 -21 -315 -23 -124 -1 -194 0 -157 2 67 4
69 5 63 28 -6 22 -3 25 19 25 14 0 25 5 25 10 0 14 -5 13 -71 -11 -32 -12 -56
-25 -53 -30 3 -5 -2 -6 -11 -3 -8 4 -56 -2 -106 -11 -77 -15 -122 -17 -297
-11 -291 9 -278 7 -319 44 -44 39 -38 50 14 24 162 -81 615 -37 873 85 85 41
173 122 211 193 34 65 33 150 -3 210 -103 176 -276 250 -584 250 -200 0 -395
-47 -491 -119 -129 -96 -122 -243 17 -348 56 -43 60 -53 25 -53 -96 0 -185
112 -185 233 0 111 66 206 181 256 80 36 416 87 581 90 48 0 117 -6 155 -13z
m-5857 -21 c0 -8 -4 -15 -10 -15 -5 0 -10 7 -10 15 0 8 5 15 10 15 6 0 10 -7
10 -15z m4376 -143 c50 -86 142 -249 204 -362 184 -334 191 -347 231 -386 38
-37 40 -38 136 -43 55 -3 98 -10 98 -16 0 -27 -230 -25 -273 2 -29 18 -91 114
-167 258 -124 234 -251 465 -316 577 -38 64 -69 119 -69 122 0 3 15 6 33 6 31
0 35 -5 123 -158z m-207 93 c37 -38 136 -208 321 -555 171 -320 217 -386 298
-419 l32 -13 0 -119 0 -119 -210 0 -210 0 0 29 c0 60 -71 107 -121 80 -21 -11
-27 -8 -66 37 -23 27 -43 54 -43 59 0 6 9 28 20 50 11 22 20 47 20 56 0 13 17
17 109 22 148 8 191 31 191 104 0 42 -157 358 -329 662 -65 116 -4 106 -674
106 -555 0 -583 -1 -614 -19 -17 -11 -40 -35 -51 -55 -29 -52 -67 -246 -97
-504 -18 -150 -13 -189 29 -235 44 -49 46 -50 512 -57 l442 -8 5 -43 c6 -58
46 -110 95 -124 20 -5 70 -10 110 -10 59 0 76 4 92 20 11 11 23 20 28 20 13
-1 142 -172 136 -181 -3 -5 -366 -9 -835 -9 l-829 0 0 78 c0 173 132 871 196
1037 27 71 93 123 181 144 21 5 305 8 630 8 l593 -2 39 -40z m841 8 c-1 -5
-19 -26 -41 -48 -98 -98 -121 -230 -62 -356 17 -36 47 -82 66 -102 85 -84 289
-144 452 -132 183 14 381 58 480 106 72 36 132 92 186 174 37 56 39 58 39 30
0 -84 -99 -202 -214 -256 -79 -37 -260 -83 -389 -99 -206 -26 -404 7 -514 85
-26 19 -67 47 -90 62 -23 16 -48 42 -55 58 -12 31 -133 224 -220 353 -27 39
-47 72 -45 72 2 0 28 5 58 10 30 6 114 17 188 25 74 8 137 17 139 20 8 8 22 6
22 -2z m-4630 -145 c0 -19 -2 -20 -10 -8 -13 19 -13 30 0 30 6 0 10 -10 10
-22z m3634 -4 c9 -8 14 -20 11 -25 -7 -11 -165 -11 -565 -2 -397 9 -333 22
155 32 209 4 381 8 382 9 1 1 9 -5 17 -14z m2360 1 c-4 -8 -10 -15 -15 -15 -5
0 -9 7 -9 15 0 8 7 15 15 15 9 0 12 -6 9 -15z m-5197 -15 c128 -21 232 -48
248 -63 7 -7 4 -8 -7 -4 -10 4 -18 3 -18 -2 0 -5 11 -12 25 -15 21 -5 24 -10
15 -26 -15 -28 -12 -34 8 -19 15 12 16 12 6 -1 -7 -8 -11 -26 -10 -40 1 -14
-3 -28 -9 -32 -7 -5 -6 -14 3 -28 12 -20 11 -20 -8 -10 -11 6 -20 7 -20 2 0
-5 10 -14 23 -20 14 -7 17 -11 7 -11 -9 -1 -21 4 -28 11 -9 9 -16 8 -30 -5
-16 -15 -43 -17 -185 -17 -154 0 -167 1 -177 19 -17 32 -13 233 6 259 18 27 6
26 151 2z m2981 -87 c55 -127 203 -563 196 -574 -3 -5 -13 -9 -23 -9 -13 0
-24 23 -48 98 -17 53 -61 180 -97 282 -76 208 -95 269 -89 288 9 26 21 9 61
-85z m1562 71 c15 -37 13 -237 -2 -252 -15 -15 -368 -17 -368 -2 0 6 -7 10
-16 10 -9 0 -12 -5 -8 -12 5 -9 4 -10 -4 -3 -6 6 -13 24 -16 40 -4 19 -3 23 2
12 7 -17 9 -17 26 2 11 12 14 21 8 21 -6 0 -12 -5 -14 -12 -3 -7 -7 -5 -11 6
-4 9 -3 15 2 11 12 -7 24 12 16 25 -5 8 -11 7 -21 -1 -9 -7 -14 -8 -14 -1 0 6
6 12 12 14 9 3 3 16 -15 37 -29 35 -37 62 -12 41 8 -7 15 -19 15 -26 0 -19 16
-18 24 1 3 9 -1 18 -9 21 -8 4 -15 9 -15 13 0 9 46 8 56 -1 14 -15 26 -8 14 7
-10 13 -10 18 3 14 1 0 16 5 32 12 48 19 196 47 253 48 48 1 53 -1 62 -25z
m-3470 -136 c-7 -35 -14 -65 -16 -67 -4 -5 -84 61 -84 70 0 8 103 68 109 63 2
-2 -2 -32 -9 -66z m-773 40 c2 -17 0 -19 -7 -8 -5 8 -6 18 -4 22 8 12 10 10
11 -14z m3810 -46 c-11 -12 -14 -22 -7 -30 6 -7 3 -6 -6 2 -14 12 -14 16 -3
30 8 8 18 15 23 16 5 0 2 -8 -7 -18z m1663 -26 c0 -11 -19 -15 -25 -6 -3 5 1
10 9 10 9 0 16 -2 16 -4z m-5476 -31 c-4 -8 -11 -12 -16 -9 -6 4 -5 10 3 15
19 12 19 11 13 -6z m-1867 -10 c0 -8 -4 -12 -9 -9 -4 3 -8 9 -8 15 0 5 4 9 8
9 5 0 9 -7 9 -15z m5683 -15 c0 -5 -5 -10 -11 -10 -5 0 -7 5 -4 10 3 6 8 10
11 10 2 0 4 -4 4 -10z m-5237 -17 c-6 -15 -4 -16 8 -6 18 15 44 1 35 -18 -4
-8 -1 -6 7 4 15 18 32 24 22 7 -3 -6 4 -10 17 -11 34 -1 91 -9 95 -13 3 -2 -9
-25 -24 -50 -16 -26 -32 -44 -34 -41 -3 3 -6 -1 -6 -8 0 -15 -51 -104 -64
-113 -5 -3 -25 0 -44 6 -33 11 -34 13 -20 33 19 27 19 71 1 86 -13 11 -22 114
-10 132 10 16 24 9 17 -8z m-369 -2 c3 -4 -6 -6 -19 -3 -14 2 -25 6 -25 8 0 8
39 4 44 -5z m7023 -53 c-2 -13 -4 -3 -4 22 0 25 2 35 4 23 2 -13 2 -33 0 -45z
m-6807 43 c0 -6 -4 -12 -8 -15 -5 -3 -9 1 -9 9 0 8 4 15 9 15 4 0 8 -4 8 -9z
m29 -82 c1 -10 -49 2 -56 14 -3 6 -1 7 5 3 6 -3 17 0 24 8 11 12 14 12 20 -3
4 -9 7 -19 7 -22z m6548 -24 c18 -30 30 -55 28 -55 -12 0 -43 35 -39 42 3 4
-4 22 -16 38 -12 17 -18 30 -13 30 4 0 22 -25 40 -55z m-4286 -60 c-19 -98
-28 -114 -66 -116 -11 0 -29 -2 -40 -5 -11 -2 -58 -6 -105 -8 -84 -5 -75 -1
28 10 29 3 50 9 47 13 -2 5 18 6 45 4 41 -3 49 -1 44 12 -4 10 0 15 10 15 16
0 17 4 21 70 1 19 7 45 13 57 7 12 12 29 12 39 0 10 2 15 5 12 3 -3 -3 -49
-14 -103z m2542 63 c41 -56 167 -264 167 -276 0 -16 -31 -3 -52 23 -25 28
-144 235 -153 263 -9 32 10 27 38 -10z m1974 10 c-3 -8 -6 -5 -6 6 -1 11 2 17
5 13 3 -3 4 -12 1 -19z m-2692 -33 c118 -68 114 -59 116 -210 2 -89 -1 -137
-10 -153 -12 -22 -13 -22 -58 35 l-45 58 6 72 c3 40 1 84 -4 98 -8 22 -69 70
-77 61 -2 -1 4 -17 13 -35 14 -28 15 -52 8 -164 -4 -73 -9 -124 -12 -114 -4
20 -21 23 -28 3 -3 -8 -13 -12 -25 -9 -10 3 -19 1 -19 -5 0 -6 -8 -9 -17 -7
-10 2 -26 4 -37 4 -17 1 -18 8 -12 104 9 123 33 277 48 294 20 25 72 14 153
-32z m2595 19 c0 -3 -13 -3 -29 -2 -16 1 -28 5 -26 9 5 6 55 0 55 -7z m-6629
-71 c-9 -16 -10 -14 -11 12 0 21 3 26 11 18 8 -8 8 -16 0 -30z m6785 0 c-11
-11 -17 4 -9 23 7 18 8 18 11 1 2 -10 1 -21 -2 -24z m-166 17 c0 -5 -2 -10 -4
-10 -3 0 -8 5 -11 10 -3 6 -1 10 4 10 6 0 11 -4 11 -10z m93 -26 c22 -29 23
-27 -26 -41 -35 -11 -39 -10 -54 13 -18 28 -18 28 22 42 40 14 38 15 58 -14z
m-6309 -55 c83 -22 163 -49 178 -60 43 -31 118 -20 118 18 0 11 4 13 13 6 20
-17 90 -27 81 -12 -5 9 -3 9 7 3 8 -5 30 -14 49 -21 35 -12 35 -12 -15 -8 -74
7 -24 -11 100 -36 126 -26 214 -37 335 -45 52 -4 101 -11 109 -17 20 -16 491
-17 621 -1 155 19 160 18 160 -10 0 -16 -7 -26 -22 -31 -13 -4 -189 -9 -392
-12 -512 -7 -638 4 -1121 102 -246 50 -435 98 -435 111 0 14 34 54 47 54 8 0
83 -18 167 -41z m7417 -299 c19 -6 46 -21 59 -35 27 -29 43 -109 34 -178 l-7
-47 -1491 2 -1491 3 -7 109 c-9 134 -4 143 81 149 142 9 2789 6 2822 -3z
m-5723 -124 c6 -4 4 -27 -5 -66 l-15 -60 -74 0 c-59 0 -75 3 -84 18 -11 16
-11 16 -6 0 5 -16 -3 -18 -64 -18 -56 0 -70 3 -70 15 0 8 -4 15 -10 15 -5 0
-7 -7 -4 -15 4 -9 0 -15 -10 -15 -9 0 -17 8 -17 18 -1 16 -2 16 -6 0 -2 -10
-13 -18 -24 -18 -13 0 -18 4 -13 13 6 10 4 10 -7 0 -7 -7 -26 -13 -41 -13 -16
0 -28 6 -28 13 0 8 -3 9 -8 1 -11 -17 -82 -16 -82 1 0 8 -4 15 -10 15 -5 0 -7
-7 -4 -15 5 -12 -2 -15 -31 -15 -29 0 -36 3 -31 15 3 9 0 15 -10 15 -10 0 -14
-6 -10 -15 7 -20 -9 -19 -30 3 -17 16 -18 16 -11 0 6 -16 -2 -18 -73 -18 -69
0 -80 2 -80 18 -1 15 -2 15 -15 -2 -15 -20 -15 -20 -30 0 -13 17 -14 17 -15 2
0 -10 -7 -18 -16 -18 -8 0 -13 4 -9 9 3 5 1 12 -5 16 -5 3 -10 -1 -10 -9 0
-19 -26 -21 -33 -3 -4 9 -8 8 -16 -3 -8 -12 -14 -10 -35 13 -14 16 -26 24 -26
18 0 -5 5 -13 10 -16 23 -15 6 -22 -47 -22 -32 0 -61 5 -65 11 -6 8 -11 6 -17
-3 -8 -13 -12 -13 -27 0 -12 9 -15 10 -10 1 6 -10 -9 -12 -63 -11 -39 1 -71 5
-71 10 0 5 -5 9 -11 9 -5 0 -8 -4 -4 -9 8 -14 -58 -10 -67 3 -5 8 -8 7 -8 -1
0 -7 -7 -13 -15 -13 -8 0 -15 6 -15 13 0 8 -3 9 -8 1 -11 -16 -464 -13 -470 4
-2 8 -8 7 -20 -4 -15 -15 -16 -15 -23 2 -7 17 -8 17 -8 2 -1 -10 -4 -18 -7
-18 -4 0 -13 8 -21 18 -8 11 -12 12 -11 3 2 -7 -3 -16 -9 -18 -7 -3 -14 4 -14
14 -1 16 -2 16 -6 1 -2 -10 -8 -18 -13 -18 -5 0 -14 8 -19 18 -10 16 -10 16
-11 0 0 -10 -4 -18 -10 -18 -5 0 -10 8 -10 18 -1 16 -1 16 -14 0 -7 -10 -16
-18 -20 -18 -3 0 -7 8 -7 18 -1 16 -2 16 -6 0 -2 -10 -7 -18 -10 -18 -3 0 -12
8 -19 18 -13 16 -13 16 -14 0 0 -22 -20 -24 -20 -3 0 8 -4 15 -10 15 -5 0 -10
-7 -10 -15 0 -8 -4 -15 -10 -15 -5 0 -10 7 -10 15 0 8 -4 15 -10 15 -5 0 -10
-7 -10 -15 0 -8 -4 -15 -10 -15 -5 0 -10 7 -10 15 0 8 -4 15 -10 15 -5 0 -9
-5 -7 -11 1 -6 -4 -14 -10 -16 -7 -3 -13 2 -13 11 0 9 -4 16 -10 16 -5 0 -10
-7 -10 -15 0 -8 -4 -15 -10 -15 -5 0 -10 7 -10 15 0 8 -4 15 -10 15 -5 0 -9
-3 -9 -7 3 -21 -2 -24 -18 -12 -13 11 -17 11 -20 2 -3 -7 -14 -13 -25 -13 -14
0 -18 5 -14 15 7 18 -10 20 -18 3 -5 -10 -7 -10 -12 0 -8 17 -25 15 -18 -2 4
-11 -5 -13 -38 -11 -24 2 -43 4 -43 5 0 1 -17 2 -38 3 -20 1 -37 0 -37 -3 0
-10 -255 2 -268 12 -9 8 -11 7 -6 -7 6 -15 4 -16 -14 -6 -14 7 -23 8 -27 1 -4
-6 -11 -7 -18 -3 -10 6 -55 8 -74 3 -5 -1 -25 -1 -45 0 -22 1 -38 -3 -38 -9 0
-6 -11 -11 -25 -11 -25 0 -26 1 -23 63 l3 62 285 5 c446 8 2947 13 2958 6z
m2242 -114 c0 -22 -48 -166 -80 -239 -19 -45 -45 -72 -56 -60 -6 5 95 289 108
304 15 18 28 16 28 -5z m-2217 -114 c4 -24 3 -61 -1 -83 l-7 -40 -1667 -3
-1668 -2 -16 -25 c-9 -14 -13 -32 -9 -45 l6 -20 1675 0 c1331 0 1675 -3 1679
-12 2 -7 5 -147 7 -311 l3 -297 -335 0 c-288 0 -339 -2 -358 -16 -24 -17 -30
-67 -9 -81 6 -4 170 -10 362 -13 l350 -5 1 -55 c1 -59 10 -135 25 -214 5 -27
9 -50 9 -51 0 -1 -151 -1 -335 -1 -369 1 -367 1 -369 64 -1 17 -3 28 -5 26 -7
-7 -71 178 -65 188 3 4 1 8 -4 8 -13 0 -27 35 -61 154 -65 222 -137 327 -273
391 -121 57 -148 60 -633 60 -428 0 -442 -1 -518 -23 -224 -64 -292 -146 -381
-459 -60 -211 -96 -256 -227 -277 -35 -6 -36 -5 -31 19 2 15 0 25 -7 25 -6 0
-11 9 -11 21 0 21 -24 52 -33 43 -3 -4 -12 -2 -19 2 -8 6 4 11 37 15 28 3 -44
6 -160 7 -117 1 -204 -2 -197 -7 8 -4 27 -7 44 -5 16 2 37 0 47 -6 12 -7 7
-10 -24 -11 -22 -1 -43 -1 -47 0 -11 1 3 -63 15 -71 6 -3 16 -4 23 -1 6 2 15
0 19 -6 12 -20 -41 -11 -64 10 -23 22 -52 81 -65 132 l-6 27 285 0 c246 0 286
-2 291 -15 4 -8 0 -23 -7 -32 -8 -10 -9 -14 -2 -10 6 4 15 2 19 -4 3 -6 1 -15
-6 -19 -8 -5 -9 -10 -2 -14 14 -8 52 94 52 139 0 64 -7 65 -347 65 -193 0
-304 4 -308 10 -8 13 -49 182 -70 290 -18 93 -32 395 -21 454 9 46 58 103 100
115 18 5 716 10 1672 10 l1642 1 5 -42z m337 -20 c0 -109 0 -109 -89 -106
l-76 3 3 65 c3 84 20 100 103 100 l59 0 0 -62z m1715 -20 c-19 -45 -35 -84
-35 -85 0 -2 -359 -2 -797 -1 l-798 3 -3 68 c-2 42 2 74 9 83 10 12 139 14
835 14 l823 0 -34 -82z m677 52 c18 -22 23 -74 12 -117 l-6 -23 -249 0 c-192
0 -249 3 -249 13 0 6 12 45 27 85 l28 74 209 -5 c203 -4 210 -5 228 -27z
m3135 8 c17 -10 42 -34 54 -55 23 -36 24 -45 21 -198 -1 -88 -7 -198 -13 -245
-9 -78 -64 -334 -75 -352 -3 -5 -87 -8 -187 -8 -223 0 -233 -4 -224 -84 8 -75
29 -129 55 -142 13 -6 23 -14 23 -18 -1 -11 13 -8 17 3 2 6 -7 15 -20 20 -18
8 -11 10 37 11 33 1 53 4 45 8 -9 3 2 10 30 18 l45 12 -73 1 c-88 1 -117 13
-102 41 10 19 22 20 165 20 84 0 156 -4 159 -8 9 -16 -43 -127 -69 -148 -77
-61 -229 -49 -296 23 -37 39 -53 75 -88 193 -40 133 -74 227 -105 288 -34 66
-124 145 -201 176 -106 42 -196 48 -662 43 -468 -4 -495 -7 -611 -66 -113 -57
-176 -144 -262 -361 -23 -58 -55 -133 -71 -168 -16 -34 -29 -67 -29 -73 0 -5
-5 -7 -12 -3 -6 4 -8 3 -5 -3 7 -11 -30 -118 -58 -174 -23 -43 -64 -49 -325
-49 l-235 0 15 128 15 127 264 2 c145 1 266 4 269 8 3 3 -117 5 -266 5 l-272
0 0 30 0 30 283 0 c270 0 285 1 302 20 21 23 23 69 4 81 -8 5 -141 9 -296 9
l-283 0 0 304 c0 168 3 307 8 310 4 2 692 6 1530 7 l1522 3 0 25 c0 13 -7 33
-17 43 -15 17 -76 18 -1530 18 l-1513 0 0 24 c0 12 -3 51 -6 85 l-7 61 1509
-2 c1407 -3 1511 -4 1541 -20z m-5540 -250 c6 -7 13 -122 17 -258 3 -135 9
-269 12 -297 l7 -53 -87 0 c-94 0 -86 -5 -92 65 -7 91 -16 525 -11 539 5 13
21 16 75 16 44 0 73 -5 79 -12z m1715 -18 c40 -41 85 -41 132 0 l34 30 269 -2
268 -3 2 -214 c2 -242 -5 -328 -27 -322 -22 5 -222 2 -228 -4 -3 -3 37 -5 89
-5 52 0 111 -3 132 -7 34 -5 38 -9 35 -32 l-3 -26 -1150 0 -1150 0 -6 100
c-13 204 -21 493 -15 504 5 8 226 11 797 11 l791 0 30 -30z m-5467 -557 c3
-21 15 -89 26 -151 12 -62 19 -115 17 -117 -2 -3 -13 -6 -24 -8 -10 -2 -28 -8
-38 -12 -13 -6 -21 -4 -24 3 -2 7 -10 12 -18 12 -7 0 -16 12 -20 28 -3 15 -10
41 -15 57 -7 23 -7 20 -3 -15 4 -25 10 -53 16 -62 9 -19 1 -23 -18 -10 -17 10
-60 118 -80 197 l-17 68 27 24 c23 19 38 23 96 23 l69 0 6 -37z m1950 4 c183
-85 295 -247 295 -428 0 -277 -194 -479 -460 -479 -264 0 -470 211 -470 481 0
196 139 381 335 446 25 8 77 12 140 10 84 -2 109 -7 160 -30z m6037 9 c121
-43 227 -139 281 -256 39 -84 48 -220 23 -319 -33 -129 -130 -246 -254 -304
-64 -31 -72 -32 -192 -32 -120 0 -128 1 -193 32 -76 36 -161 112 -208 184
-132 206 -68 498 138 635 128 85 274 106 405 60z m1542 14 c43 -16 52 -49 32
-126 -19 -79 -60 -174 -75 -174 -6 0 -11 12 -12 28 -1 27 -1 27 -8 3 -4 -14
-13 -27 -20 -29 -10 -3 -12 7 -8 49 l6 54 -12 -47 c-13 -51 -21 -63 -35 -54
-5 3 -6 23 -2 46 4 21 4 37 -1 35 -4 -3 -10 -23 -14 -45 -8 -45 -19 -57 -39
-41 -10 9 -12 21 -5 49 5 20 16 84 24 142 9 57 21 108 28 112 17 11 111 10
141 -2z m-5740 -186 c16 -40 9 -44 -79 -44 -47 0 -85 3 -85 8 0 4 -3 17 -6 30
-6 22 -5 22 79 22 68 0 86 -3 91 -16z m2370 8 c3 -5 2 -18 -1 -30 l-5 -22
-397 -2 -396 -3 393 -2 394 -3 -7 -88 c-4 -48 -10 -105 -14 -127 l-7 -40
-1089 -3 -1090 -2 -18 74 c-10 40 -22 100 -27 132 -5 32 -12 74 -16 92 l-6 32
1140 0 c628 0 1143 -4 1146 -8z m-2378 -78 c-3 -8 -2 -13 2 -10 5 3 14 -31 21
-75 7 -44 18 -98 26 -119 l14 -40 -78 0 c-53 0 -82 4 -90 13 -8 10 -41 200
-41 236 0 3 34 7 76 8 64 2 75 0 70 -13z m-3333 -1 c-7 -2 -21 -2 -30 0 -10 3
-4 5 12 5 17 0 24 -2 18 -5z m-200 -60 c-7 -2 -19 -2 -25 0 -7 3 -2 5 12 5 14
0 19 -2 13 -5z m6742 -343 c39 -5 73 -9 78 -10 4 0 7 -7 7 -16 0 -27 60 -161
99 -221 21 -32 63 -86 95 -120 l58 -63 -2518 0 -2519 0 32 25 c78 62 212 287
213 358 0 16 33 17 544 17 459 0 550 -2 586 -15 38 -13 231 -15 1558 -15 1451
0 1516 1 1556 19 22 10 50 28 61 40 15 18 26 21 50 17 16 -3 62 -10 100 -16z"/>
<path d="M4420 6996 c7 -7 14 -6 21 1 9 9 7 12 -9 10 -14 -1 -18 -5 -12 -11z"/>
<path d="M4585 6990 c3 -5 8 -10 11 -10 2 0 4 5 4 10 0 6 -5 10 -11 10 -5 0
-7 -4 -4 -10z"/>
<path d="M4610 6991 c0 -6 4 -13 10 -16 6 -3 7 1 4 9 -7 18 -14 21 -14 7z"/>
<path d="M4426 6964 c-4 -10 -1 -14 6 -12 15 5 23 28 10 28 -5 0 -13 -7 -16
-16z"/>
<path d="M4470 6965 c-11 -13 -10 -14 4 -9 9 3 16 10 16 15 0 13 -6 11 -20 -6z"/>
<path d="M4517 6959 c-9 -12 -14 -26 -11 -31 9 -14 24 1 17 17 -3 8 0 15 6 15
6 0 11 -12 11 -26 0 -14 -4 -23 -9 -19 -6 3 -9 -7 -8 -21 3 -34 27 -44 28 -12
1 13 1 27 0 32 -1 4 3 14 9 20 5 7 7 16 3 19 -3 4 -1 7 6 7 7 0 9 5 5 11 -4 8
-9 7 -15 -2 -8 -12 -10 -12 -18 0 -7 10 -12 8 -24 -10z"/>
<path d="M4592 6958 c-16 -16 -15 -28 1 -28 7 0 13 9 13 20 0 11 -1 20 -1 20
-1 0 -6 -5 -13 -12z"/>
<path d="M4347 6939 c6 -6 9 -19 6 -28 -7 -17 -5 -16 17 13 10 13 10 17 3 12
-7 -4 -13 -2 -13 3 0 6 -5 11 -12 11 -9 0 -9 -3 -1 -11z"/>
<path d="M4472 6935 c4 -4 4 -13 -2 -19 -6 -8 -2 -16 11 -24 12 -8 19 -9 19
-1 0 5 5 7 12 3 7 -5 8 -3 4 5 -5 7 -15 10 -23 7 -11 -4 -13 -2 -10 9 4 8 1
17 -6 21 -7 4 -9 4 -5 -1z"/>
<path d="M4560 6921 c0 -5 5 -13 10 -16 6 -3 10 -2 10 4 0 5 -4 13 -10 16 -5
3 -10 2 -10 -4z"/>
<path d="M5733 6979 c12 -7 16 -17 11 -32 -5 -17 -3 -19 6 -11 16 16 3 54 -18
54 -15 -1 -15 -2 1 -11z"/>
<path d="M5800 6981 c0 -10 19 -25 25 -20 1 2 -3 10 -11 17 -8 7 -14 8 -14 3z"/>
<path d="M5813 6923 c-15 -5 -17 -23 -4 -23 5 0 11 7 15 15 3 8 4 15 3 14 -1
0 -8 -3 -14 -6z"/>
<path d="M1601 7201 c-21 -38 17 -96 45 -69 3 4 12 4 20 1 17 -6 19 38 4 68
-14 25 -56 25 -69 0z"/>
<path d="M1646 7075 c4 -31 3 -37 -5 -25 -9 12 -10 8 -5 -15 9 -38 14 -44 14
-17 0 26 15 29 29 5 5 -10 13 -14 18 -9 4 5 2 11 -4 13 -7 3 -13 9 -13 14 0 5
-9 23 -20 41 l-19 32 5 -39z"/>
<path d="M1685 7002 c-11 -2 -24 -9 -30 -14 -7 -8 -6 -9 3 -4 10 6 11 1 6 -18
-4 -17 -2 -26 6 -26 7 0 10 7 6 15 -4 11 1 15 19 15 19 0 25 -5 25 -21 0 -15
5 -19 16 -15 8 3 13 2 10 -3 -7 -10 22 -37 30 -28 4 4 -60 98 -70 103 0 0 -10
-2 -21 -4z"/>
<path d="M1670 6926 c0 -12 33 -87 36 -83 3 2 -3 21 -11 43 -12 30 -12 35 -2
22 8 -10 16 -16 18 -13 3 2 6 -7 7 -21 1 -14 6 -33 10 -41 8 -13 10 -12 15 6
3 12 1 19 -4 15 -5 -3 -9 11 -9 30 0 24 -5 36 -14 36 -8 0 -21 3 -30 6 -9 3
-16 3 -16 0z"/>
<path d="M1768 6890 c-10 -6 -14 -18 -11 -30 3 -12 8 -19 11 -16 2 3 14 1 25
-5 14 -8 18 -8 13 0 -11 17 5 13 28 -6 11 -10 5 1 -14 25 -18 23 -34 42 -34
42 -1 0 -8 -5 -18 -10z"/>
<path d="M3480 7070 c0 -5 5 -10 11 -10 5 0 7 5 4 10 -3 6 -8 10 -11 10 -2 0
-4 -4 -4 -10z"/>
<path d="M3276 7047 c3 -10 9 -15 12 -12 3 3 0 11 -7 18 -10 9 -11 8 -5 -6z"/>
<path d="M3523 7045 c-13 -5 -23 -13 -23 -18 0 -4 -4 -5 -10 -2 -5 3 -10 1
-10 -4 0 -14 17 -14 25 -1 3 6 14 10 23 10 15 0 15 -2 2 -10 -12 -8 -12 -10
-1 -10 13 0 40 27 41 41 0 9 -22 6 -47 -6z"/>
<path d="M3383 7030 c2 -8 13 -15 24 -16 15 -1 20 3 16 13 -5 12 -7 12 -14 1
-7 -11 -11 -10 -20 2 -9 13 -10 13 -6 0z"/>
<path d="M3452 7004 c10 -10 20 -16 22 -13 3 3 -5 11 -17 18 -21 13 -21 12 -5
-5z"/>
<path d="M6780 7060 c0 -5 5 -10 11 -10 5 0 7 5 4 10 -3 6 -8 10 -11 10 -2 0
-4 -4 -4 -10z"/>
<path d="M6690 7040 c-8 -5 -12 -12 -9 -15 4 -3 12 1 19 10 14 17 11 19 -10 5z"/>
<path d="M6879 7027 c6 -8 7 -18 3 -22 -4 -5 -2 -5 5 -1 14 8 6 36 -9 36 -7 0
-6 -5 1 -13z"/>
<path d="M6695 7010 c-3 -5 -1 -10 4 -10 6 0 11 5 11 10 0 6 -2 10 -4 10 -3 0
-8 -4 -11 -10z"/>
<path d="M6620 6716 c-105 -23 -300 -74 -364 -96 -111 -38 -207 -117 -258
-212 -20 -37 -23 -57 -23 -148 0 -96 2 -109 29 -160 43 -82 72 -116 138 -160
100 -67 462 -162 623 -164 82 -1 96 2 157 31 92 43 149 105 202 217 60 126 79
189 80 268 0 60 -4 76 -43 151 -54 107 -147 204 -239 249 -55 27 -77 32 -151
35 -47 1 -115 -4 -151 -11z m202 -57 c74 -15 125 -47 198 -125 109 -118 147
-238 104 -330 -11 -22 -19 -41 -19 -44 -1 -10 -60 -107 -88 -142 -27 -35 -57
-54 -41 -25 4 7 3 9 -2 4 -5 -5 -7 -10 -4 -12 7 -5 -41 -55 -52 -55 -5 0 -6 6
-2 13 4 7 3 9 -2 4 -5 -5 -9 -14 -9 -20 0 -7 -8 -11 -18 -11 -9 1 -14 -3 -11
-8 4 -6 1 -8 -7 -6 -8 3 -22 -1 -31 -9 -33 -29 -192 -20 -392 21 -98 20 -197
44 -220 55 -89 39 -166 135 -187 231 -21 97 19 211 98 280 58 52 145 85 344
134 243 59 260 62 341 45z"/>
<path d="M6595 6586 c-333 -73 -457 -136 -495 -251 -20 -62 -9 -155 26 -211
54 -88 150 -131 369 -165 223 -35 301 -25 402 49 74 55 193 232 193 288 0 79
-119 248 -203 288 -62 29 -165 30 -292 2z m197 -168 c18 -63 17 -400 -1 -422
-7 -9 -17 -16 -22 -16 -5 0 -9 108 -9 240 0 242 7 283 32 198z"/>
<path d="M7059 6113 c-13 -16 -12 -17 4 -4 9 7 17 15 17 17 0 8 -8 3 -21 -13z"/>
<path d="M7009 6043 c-13 -16 -12 -17 4 -4 9 7 17 15 17 17 0 8 -8 3 -21 -13z"/>
<path d="M8601 6204 c0 -11 3 -14 6 -6 3 7 2 16 -1 19 -3 4 -6 -2 -5 -13z"/>
<path d="M8580 6175 c0 -8 4 -15 10 -15 5 0 7 7 4 15 -4 8 -8 15 -10 15 -2 0
-4 -7 -4 -15z"/>
<path d="M8515 6140 c-3 -5 -1 -10 4 -10 6 0 11 5 11 10 0 6 -2 10 -4 10 -3 0
-8 -4 -11 -10z"/>
<path d="M8138 6053 c7 -3 16 -2 19 1 4 3 -2 6 -13 5 -11 0 -14 -3 -6 -6z"/>
<path d="M8150 6030 c-9 -6 -10 -10 -3 -10 6 0 15 5 18 10 8 12 4 12 -15 0z"/>
<path d="M7230 5980 c0 -5 5 -10 11 -10 5 0 7 5 4 10 -3 6 -8 10 -11 10 -2 0
-4 -4 -4 -10z"/>
<path d="M7190 5970 c0 -5 5 -10 10 -10 6 0 10 5 10 10 0 6 -4 10 -10 10 -5 0
-10 -4 -10 -10z"/>
<path d="M7170 5941 c0 -5 7 -11 14 -14 10 -4 13 -1 9 9 -6 15 -23 19 -23 5z"/>
<path d="M7210 5939 c0 -5 5 -7 10 -4 6 3 10 8 10 11 0 2 -4 4 -10 4 -5 0 -10
-5 -10 -11z"/>
<path d="M7250 5929 c0 -5 5 -7 10 -4 6 3 10 8 10 11 0 2 -4 4 -10 4 -5 0 -10
-5 -10 -11z"/>
<path d="M7110 5905 c0 -8 2 -15 4 -15 2 0 6 7 10 15 3 8 1 15 -4 15 -6 0 -10
-7 -10 -15z"/>
<path d="M7150 5910 c0 -5 5 -10 10 -10 6 0 10 5 10 10 0 6 -4 10 -10 10 -5 0
-10 -4 -10 -10z"/>
<path d="M7220 5909 c0 -5 5 -7 10 -4 6 3 10 8 10 11 0 2 -4 4 -10 4 -5 0 -10
-5 -10 -11z"/>
<path d="M5995 5900 c-3 -5 -1 -10 4 -10 6 0 11 5 11 10 0 6 -2 10 -4 10 -3 0
-8 -4 -11 -10z"/>
<path d="M5705 5890 c-3 -6 1 -7 9 -4 18 7 21 14 7 14 -6 0 -13 -4 -16 -10z"/>
<path d="M5920 5880 c0 -5 5 -10 11 -10 5 0 7 5 4 10 -3 6 -8 10 -11 10 -2 0
-4 -4 -4 -10z"/>
<path d="M7125 5880 c-3 -5 -1 -10 4 -10 6 0 11 5 11 10 0 6 -2 10 -4 10 -3 0
-8 -4 -11 -10z"/>
<path d="M5955 5870 c3 -5 8 -10 11 -10 2 0 4 5 4 10 0 6 -5 10 -11 10 -5 0
-7 -4 -4 -10z"/>
<path d="M6001 5871 c-12 -8 -12 -12 2 -25 8 -9 19 -16 23 -16 5 0 3 5 -4 12
-19 19 -14 30 11 23 17 -5 19 -4 7 4 -18 13 -21 13 -39 2z"/>
<path d="M6075 5870 c-3 -5 -1 -10 4 -10 6 0 11 5 11 10 0 6 -2 10 -4 10 -3 0
-8 -4 -11 -10z"/>
<path d="M7080 5870 c0 -5 5 -10 11 -10 5 0 7 -4 4 -10 -3 -5 1 -10 9 -10 14
0 14 3 4 20 -14 21 -28 27 -28 10z"/>
<path d="M6145 5850 c-3 -5 -1 -10 4 -10 6 0 11 5 11 10 0 6 -2 10 -4 10 -3 0
-8 -4 -11 -10z"/>
<path d="M6088 5843 c7 -3 16 -2 19 1 4 3 -2 6 -13 5 -11 0 -14 -3 -6 -6z"/>
<path d="M2959 6709 c-6 -12 -9 -29 -6 -39 3 -13 -41 -63 -157 -179 l-162
-161 -147 0 -148 0 3 123 c2 88 6 122 16 123 6 1 17 2 22 3 14 1 13 44 -2 59
-7 7 -30 12 -53 12 -48 0 -65 -13 -65 -52 0 -22 5 -28 21 -28 20 0 21 -4 15
-52 -3 -29 -6 -83 -6 -120 l0 -68 -422 -2 -423 -3 -3 -22 -3 -23 173 -2 c95
-1 286 -2 425 -3 l252 0 3 -103 c2 -57 1 -106 -1 -108 -3 -2 -5 -21 -5 -42 -1
-29 -5 -38 -21 -40 -22 -3 -272 59 -321 80 -29 12 -39 15 -61 17 -7 0 -13 10
-13 22 0 12 -4 17 -11 14 -6 -4 -8 -14 -5 -24 5 -12 2 -11 -9 3 -8 11 -15 14
-15 8 0 -7 -5 -12 -11 -12 -6 0 -8 7 -5 16 5 14 4 15 -9 4 -12 -10 -15 -9 -15
6 0 14 -2 16 -9 6 -6 -11 -15 -10 -44 4 -21 10 -37 22 -37 26 0 5 -8 8 -17 6
-13 -2 -17 3 -15 17 l4 20 -16 -20 c-15 -19 -15 -19 -16 -1 0 17 -2 17 -24 3
-23 -15 -24 -15 -19 4 3 11 2 19 -3 18 -18 -4 -64 14 -64 25 0 6 -5 4 -10 -4
-5 -8 -10 -10 -10 -5 0 11 -55 35 -78 35 -9 0 -9 -5 0 -19 9 -15 15 -17 25 -9
10 8 12 7 7 -6 -7 -19 -4 -19 -42 -5 -18 6 -30 14 -28 18 3 4 -3 7 -12 7 -9 1
-26 4 -37 8 l-20 8 20 -17 c57 -49 475 -230 665 -287 171 -53 341 -98 348 -94
4 2 43 -4 87 -15 94 -23 330 -62 576 -96 29 -4 41 0 58 18 33 36 13 98 -33
100 -21 0 -78 59 -57 59 5 0 14 -8 20 -17 5 -10 13 -14 17 -10 10 9 -33 50
-45 43 -14 -9 -291 335 -291 361 0 23 321 345 338 338 42 -16 69 46 34 78 -27
25 -89 22 -103 -4z m-634 -99 c3 -5 1 -10 -4 -10 -6 0 -11 5 -11 10 0 6 2 10
4 10 3 0 8 -4 11 -10z m352 -394 c92 -114 115 -146 107 -146 -4 0 -1 -6 8 -12
23 -18 168 -198 168 -209 0 -11 23 -15 -206 30 -109 22 -236 45 -281 51 l-82
12 -20 42 c-14 30 -20 72 -24 162 -3 67 -3 124 0 127 3 3 67 6 143 5 l138 0
49 -62z m-1182 -26 c7 0 19 -7 26 -17 13 -15 11 -15 -18 1 -18 9 -33 22 -32
29 0 9 2 9 6 0 2 -7 10 -13 18 -13z"/>
<path d="M2666 6048 c-3 -13 -1 -27 4 -32 13 -13 40 -16 40 -5 0 6 -8 9 -17 7
-14 -2 -17 3 -15 25 3 33 -3 36 -12 5z"/>
<path d="M2711 6054 c0 -11 3 -14 6 -6 3 7 2 16 -1 19 -3 4 -6 -2 -5 -13z"/>
<path d="M2536 5995 c-11 -8 -16 -15 -10 -15 5 0 18 7 28 15 11 8 16 15 10 15
-5 0 -18 -7 -28 -15z"/>
<path d="M2650 6001 c0 -5 5 -13 10 -16 6 -3 10 -2 10 4 0 5 -4 13 -10 16 -5
3 -10 2 -10 -4z"/>
<path d="M3379 6717 c-101 -29 -207 -117 -274 -228 -49 -80 -65 -131 -65 -209
0 -121 78 -297 175 -395 106 -108 197 -133 370 -100 159 29 358 82 438 115
169 70 258 210 245 389 -6 86 -35 148 -98 215 -73 77 -157 115 -380 171 -206
51 -332 64 -411 42z m361 -97 c303 -71 407 -135 456 -282 47 -142 -48 -320
-202 -378 -102 -38 -349 -83 -464 -84 -91 -1 -111 2 -151 22 -125 62 -279 280
-279 393 0 105 133 288 251 344 50 24 62 26 154 22 62 -3 151 -17 235 -37z"/>
<path d="M3380 6588 c-109 -43 -225 -196 -225 -298 0 -35 9 -58 39 -105 70
-108 143 -182 212 -216 l65 -32 122 6 c214 11 395 56 469 117 86 71 114 209
63 310 -50 98 -154 148 -427 204 -183 38 -251 41 -318 14z m105 -368 c0 -182
-3 -240 -12 -240 -30 0 -37 45 -37 225 -1 181 10 255 37 255 9 0 12 -63 12
-240z"/>
<path d="M3300 5976 c0 -2 8 -10 18 -17 15 -13 16 -12 3 4 -13 16 -21 21 -21
13z"/>
<path d="M4840 6490 c-11 -11 -20 -26 -20 -33 0 -7 -21 -24 -47 -37 -25 -14
-107 -58 -182 -98 -121 -66 -137 -72 -160 -62 -22 10 -28 9 -43 -10 -36 -44
-10 -108 39 -95 29 7 34 4 164 -87 152 -107 180 -129 172 -141 -4 -6 -1 -7 6
-2 16 9 61 -32 61 -56 0 -24 36 -48 63 -42 12 3 33 15 47 27 15 13 19 15 11 4
-12 -16 -7 -16 56 2 38 10 127 40 198 65 71 25 131 45 133 45 3 0 -2 7 -9 17
-13 15 -12 15 8 5 18 -10 31 -7 85 21 70 37 228 127 228 130 0 1 -24 1 -54 0
-31 0 -64 -8 -80 -18 -14 -9 -31 -15 -38 -13 -7 3 -43 -6 -81 -19 -38 -13 -79
-23 -90 -24 -21 0 -21 -1 -2 -9 11 -5 14 -9 7 -9 -11 -1 -11 -3 0 -14 7 -7 21
-16 31 -20 9 -3 17 -11 17 -17 0 -7 -6 -8 -19 -1 -14 8 -23 6 -37 -10 -27 -30
-58 -39 -94 -29 -19 5 -28 5 -25 -1 4 -5 -10 -9 -29 -9 -25 0 -36 -4 -36 -15
0 -8 -9 -15 -20 -15 -13 0 -20 7 -20 20 0 13 -7 20 -20 20 -13 0 -20 -7 -20
-20 0 -19 -4 -20 -37 -14 -21 3 -45 13 -53 20 -12 12 -7 14 38 14 44 0 52 3
52 19 0 23 -38 34 -86 25 -27 -5 -34 -11 -34 -29 0 -12 9 -30 20 -40 11 -10
20 -25 19 -34 0 -11 -3 -9 -9 6 -5 12 -16 25 -25 30 -13 8 -17 29 -18 109 l-2
99 210 2 c116 1 234 3 263 3 49 0 52 2 52 25 l0 25 -260 0 -260 0 0 110 c0 91
3 110 15 110 27 0 23 48 -7 73 -27 22 -53 22 -78 -3z m50 -40 c0 -5 -2 -10 -4
-10 -3 0 -8 5 -11 10 -3 6 -1 10 4 10 6 0 11 -4 11 -10z m-32 -242 l-3 -203
-39 3 c-26 3 -36 0 -31 -7 3 -6 -63 35 -149 91 -85 57 -155 105 -155 108 -1 3
77 47 172 99 94 51 176 97 182 102 5 5 13 9 17 9 5 0 7 -91 6 -202z m492 -148
c0 -5 -5 -10 -11 -10 -5 0 -7 5 -4 10 3 6 8 10 11 10 2 0 4 -4 4 -10z m70 -24
c0 -3 -4 -8 -10 -11 -5 -3 -10 -1 -10 4 0 6 5 11 10 11 6 0 10 -2 10 -4z"/>
<path d="M1330 6329 c-18 -32 -8 -62 24 -74 24 -8 31 -6 47 14 23 28 24 45 3
65 -22 23 -61 20 -74 -5z"/>
<path d="M5462 6198 c-17 -17 -15 -42 7 -62 23 -21 49 -12 57 20 11 42 -34 72
-64 42z"/>
<path d="M1890 6120 c0 -5 5 -10 11 -10 5 0 7 5 4 10 -3 6 -8 10 -11 10 -2 0
-4 -4 -4 -10z"/>
<path d="M1928 6093 c7 -3 16 -2 19 1 4 3 -2 6 -13 5 -11 0 -14 -3 -6 -6z"/>
<path d="M1967 6083 c-10 -10 -8 -25 2 -18 5 3 12 1 16 -4 3 -6 12 -8 20 -5 8
4 12 10 9 15 -3 5 -10 6 -16 3 -6 -4 -13 -1 -17 5 -4 6 -10 8 -14 4z"/>
<path d="M2055 6070 c2 -27 10 -33 12 -10 1 11 -2 22 -6 24 -4 3 -7 -4 -6 -14z"/>
<path d="M2085 6080 c-5 -9 -4 -11 3 -6 15 9 16 -6 1 -21 -7 -7 -3 -9 14 -6
18 4 27 0 30 -14 4 -12 5 -9 4 7 -1 14 -5 23 -9 20 -4 -3 -13 4 -21 14 -11 15
-16 16 -22 6z"/>
<path d="M2210 6086 c0 -2 7 -9 15 -16 9 -7 15 -8 15 -2 0 5 -7 12 -15 16 -8
3 -15 4 -15 2z"/>
<path d="M2160 6042 c-17 -6 -11 -22 8 -22 10 0 22 -4 28 -9 5 -5 26 -13 47
-16 35 -7 37 -6 37 19 0 14 -3 26 -7 27 -28 3 -105 3 -113 1z"/>
<path d="M5204 6034 c11 -8 23 -14 28 -14 10 0 11 20 1 21 -5 0 -17 2 -28 4
-20 4 -20 4 -1 -11z"/>
<path d="M5121 6033 l-34 -4 28 -15 c20 -10 32 -11 39 -4 6 6 6 10 1 10 -6 0
-3 5 5 10 8 5 11 9 5 8 -5 -1 -25 -3 -44 -5z"/>
<path d="M5035 6013 c11 -3 26 -10 33 -15 9 -8 12 -6 12 6 0 12 -9 16 -32 15
-22 -1 -26 -3 -13 -6z"/>
<path d="M2995 6000 c3 -5 8 -10 11 -10 2 0 4 5 4 10 0 6 -5 10 -11 10 -5 0
-7 -4 -4 -10z"/>
<path d="M4655 5972 c3 -4 -9 -11 -27 -18 -21 -7 -33 -17 -34 -30 -1 -16 0
-16 3 -1 5 18 23 24 23 7 0 -5 7 -10 16 -10 14 0 14 3 4 15 -10 12 -9 15 6 17
27 2 35 1 72 -11 19 -6 30 -6 27 0 -4 5 -15 9 -25 9 -22 0 -35 17 -18 23 7 2
-2 4 -21 5 -18 0 -30 -2 -26 -6z"/>
<path d="M4541 5934 c0 -11 3 -14 6 -6 3 7 2 16 -1 19 -3 4 -6 -2 -5 -13z"/>
<path d="M3048 5933 c7 -3 16 -2 19 1 4 3 -2 6 -13 5 -11 0 -14 -3 -6 -6z"/>
<path d="M4496 5924 c-3 -8 -2 -12 4 -9 6 3 10 2 10 -2 0 -5 10 -14 23 -22 21
-14 21 -13 7 5 -32 41 -38 44 -44 28z"/>
<path d="M4430 5911 c0 -5 5 -13 10 -16 6 -3 10 -2 10 4 0 5 -4 13 -10 16 -5
3 -10 2 -10 -4z"/>
<path d="M3077 5898 c7 -8 10 -18 6 -21 -3 -4 -1 -7 6 -7 17 0 10 32 -9 38
-12 4 -13 3 -3 -10z"/>
<path d="M4378 5903 c6 -2 18 -2 25 0 6 3 1 5 -13 5 -14 0 -19 -2 -12 -5z"/>
<path d="M3131 5887 c-1 -10 9 -21 23 -27 13 -5 25 -13 27 -18 6 -14 132 -102
147 -102 7 0 11 -4 8 -9 -12 -18 24 -31 120 -43 133 -16 522 -16 659 0 142 17
184 27 274 68 81 37 85 39 76 24 -3 -5 -1 -10 5 -10 7 0 9 8 5 19 -6 20 18 36
38 24 6 -4 8 0 4 10 -3 9 -1 18 6 20 8 3 4 13 -10 28 -13 13 -23 18 -23 11 0
-8 -5 -10 -12 -6 -6 4 -8 3 -4 -4 3 -6 1 -14 -5 -18 -7 -4 -9 -3 -5 4 3 6 1
14 -5 18 -6 3 -15 0 -20 -7 -7 -11 -9 -10 -9 4 0 9 -5 17 -11 17 -7 0 -9 -10
-7 -24 4 -20 1 -23 -17 -21 -12 1 -27 5 -33 9 -7 4 -12 1 -12 -7 0 -8 -7 -18
-16 -21 -8 -3 -12 -2 -9 4 3 6 2 10 -4 10 -5 0 -13 -5 -17 -11 -5 -8 -9 -8
-14 1 -5 8 -11 7 -23 -5 -13 -12 -21 -14 -37 -5 -11 6 -20 7 -20 2 0 -14 -112
-23 -127 -10 -10 8 -12 7 -8 -5 5 -11 0 -15 -17 -15 -13 0 -41 -5 -63 -11 -22
-6 -125 -22 -230 -36 -196 -26 -339 -32 -350 -15 -3 6 -17 10 -30 10 -37 0
-129 47 -179 91 -24 21 -49 39 -54 39 -6 0 -13 8 -15 18 -4 16 -5 16 -6 -1z
m1374 -27 c3 -5 1 -10 -4 -10 -6 0 -11 5 -11 10 0 6 2 10 4 10 3 0 8 -4 11
-10z"/>
<path d="M4317 5884 c-3 -5 1 -15 9 -22 16 -14 18 -5 5 17 -5 7 -11 9 -14 5z"/>
<path d="M4381 5881 c-7 -5 -10 -14 -7 -20 11 -18 25 -13 23 9 -1 11 -1 20 -2
20 0 0 -6 -4 -14 -9z"/>
<path d="M4205 5850 c-4 -6 -11 -7 -17 -4 -7 4 -8 2 -4 -4 7 -12 36 -5 36 9 0
12 -7 11 -15 -1z"/>
<path d="M4230 5855 c0 -5 5 -17 10 -25 5 -8 10 -10 10 -5 0 6 -5 17 -10 25
-5 8 -10 11 -10 5z"/>
<path d="M4098 5833 c6 -2 18 -2 25 0 6 3 1 5 -13 5 -14 0 -19 -2 -12 -5z"/>
<path d="M3905 5650 c-18 -8 -17 -9 8 -9 15 -1 27 4 27 9 0 12 -8 12 -35 0z"/>
<path d="M7894 6054 c13 -29 32 -38 40 -19 3 9 0 12 -10 8 -8 -3 -14 1 -14 10
0 8 -6 17 -14 20 -11 4 -11 1 -2 -19z"/>
<path d="M7562 6044 c-7 -8 -8 -14 -3 -14 10 0 25 19 20 25 -2 1 -10 -3 -17
-11z"/>
<path d="M7660 6040 c-8 -5 -12 -12 -9 -15 4 -3 12 1 19 10 14 17 11 19 -10 5z"/>
<path d="M7704 6035 c-3 -8 -2 -20 2 -26 5 -9 2 -10 -9 -6 -10 4 -17 1 -17 -6
0 -8 -4 -6 -10 3 -7 10 -10 11 -10 2 0 -7 12 -17 26 -22 33 -13 34 -13 34 4 0
23 17 28 33 11 23 -23 47 -19 47 8 0 18 -2 19 -10 7 -6 -9 -10 -11 -10 -3 0 7
-7 10 -16 6 -9 -3 -20 0 -25 8 -6 10 -9 10 -9 2 0 -7 -5 -13 -11 -13 -6 0 -9
9 -6 20 6 23 -1 27 -9 5z"/>
<path d="M7751 6034 c0 -11 3 -14 6 -6 3 7 2 16 -1 19 -3 4 -6 -2 -5 -13z"/>
<path d="M7836 6034 c-8 -21 -8 -21 8 -21 8 0 11 8 8 19 -5 22 -8 23 -16 2z"/>
<path d="M7870 6040 c0 -5 5 -10 11 -10 5 0 7 5 4 10 -3 6 -8 10 -11 10 -2 0
-4 -4 -4 -10z"/>
<path d="M7440 6015 c0 -7 -7 -18 -16 -23 -11 -6 -13 -12 -6 -16 6 -3 18 4 26
16 18 26 20 38 6 38 -5 0 -10 -7 -10 -15z"/>
<path d="M7505 6010 c10 -16 -4 -47 -20 -47 -11 0 -12 4 -5 11 20 20 10 27
-15 9 -28 -21 -33 -66 -10 -90 14 -13 19 -13 48 4 22 13 33 28 35 47 3 23 0
27 -12 23 -17 -7 -22 8 -6 18 15 9 12 22 -6 29 -8 3 -12 2 -9 -4z"/>
<path d="M7595 5997 c-17 -22 -15 -34 6 -32 28 2 55 45 29 45 -5 0 -10 -7 -10
-15 0 -8 -4 -15 -10 -15 -5 0 -7 7 -4 15 7 18 3 19 -11 2z"/>
<path d="M7640 5981 c0 -5 7 -12 16 -15 14 -5 15 -4 4 9 -14 17 -20 19 -20 6z"/>
<path d="M7680 5961 c0 -9 24 -21 41 -21 5 0 9 4 9 10 0 5 -7 7 -15 4 -8 -4
-15 -1 -15 5 0 6 -4 11 -10 11 -5 0 -10 -4 -10 -9z"/>
<path d="M7410 5884 c0 -8 -4 -13 -9 -9 -5 3 -12 1 -16 -5 -8 -13 11 -13 36 1
11 5 17 14 14 20 -10 14 -25 11 -25 -7z"/>
<path d="M1413 5103 c9 -2 17 -8 17 -13 0 -4 10 -5 23 -2 22 6 22 6 -3 13 -14
4 -32 7 -40 7 -10 0 -9 -2 3 -5z"/>
<path d="M7658 4633 c6 -2 18 -2 25 0 6 3 1 5 -13 5 -14 0 -19 -2 -12 -5z"/>
<path d="M4423 4390 c-27 -11 -43 -40 -43 -77 0 -39 17 -53 61 -53 31 0 38 -4
41 -21 8 -52 88 -56 88 -4 l0 25 105 0 c92 0 108 3 125 20 26 26 26 72 -1 96
-19 17 -40 19 -188 21 -91 1 -176 -2 -188 -7z m332 -49 c11 -19 -24 -26 -153
-30 -131 -3 -163 3 -148 28 9 14 292 15 301 2z"/>
<path d="M3110 5168 c0 -9 -3 -23 -6 -32 -3 -9 -1 -16 6 -16 6 0 9 4 5 9 -3 5
-1 12 5 16 5 3 10 2 10 -3 0 -5 7 -9 15 -9 8 0 15 7 15 14 0 8 -5 11 -12 7 -6
-4 -17 1 -25 11 -11 16 -13 16 -13 3z"/>
<path d="M3171 5144 c0 -11 3 -14 6 -6 3 7 2 16 -1 19 -3 4 -6 -2 -5 -13z"/>
<path d="M3068 5143 c7 -3 16 -2 19 1 4 3 -2 6 -13 5 -11 0 -14 -3 -6 -6z"/>
<path d="M3145 5110 c18 -8 18 -9 2 -9 -10 -1 -15 -6 -12 -12 4 -6 13 -8 20
-5 8 3 11 -2 8 -15 -3 -10 -1 -19 5 -19 5 0 12 9 15 20 3 11 1 20 -4 20 -5 0
-9 7 -9 15 0 9 -9 15 -22 14 -22 0 -22 -1 -3 -9z"/>
<path d="M3100 5100 c0 -5 5 -10 11 -10 5 0 7 5 4 10 -3 6 -8 10 -11 10 -2 0
-4 -4 -4 -10z"/>
<path d="M3071 5064 c0 -11 3 -14 6 -6 3 7 2 16 -1 19 -3 4 -6 -2 -5 -13z"/>
<path d="M3123 5063 c-13 -2 -23 -8 -23 -13 0 -5 8 -7 18 -4 16 5 16 4 -1 -9
-11 -9 -14 -18 -8 -21 6 -4 17 7 26 24 8 16 14 29 13 29 -2 -1 -13 -4 -25 -6z"/>
<path d="M3066 5025 c-3 -8 -1 -15 4 -15 6 0 10 7 10 15 0 8 -2 15 -4 15 -2 0
-6 -7 -10 -15z"/>
<path d="M3127 5008 c-10 -11 -17 -22 -14 -24 2 -2 12 5 22 16 23 26 16 33 -8
8z"/>
<path d="M7084 5163 c4 -12 2 -24 -4 -28 -12 -7 -14 -25 -2 -25 4 0 13 9 20
20 11 17 10 23 -4 37 -16 16 -16 16 -10 -4z"/>
<path d="M7130 5149 c0 -5 5 -7 10 -4 6 3 10 8 10 11 0 2 -4 4 -10 4 -5 0 -10
-5 -10 -11z"/>
<path d="M7150 5125 c0 -18 -17 -20 -23 -2 -2 6 -7 10 -10 7 -3 -3 1 -13 8
-23 13 -18 14 -18 33 1 17 17 18 22 6 26 -8 3 -14 -1 -14 -9z"/>
<path d="M7090 5100 c-13 -8 -12 -10 3 -10 9 0 17 5 17 10 0 12 -1 12 -20 0z"/>
<path d="M7180 5100 c0 -5 5 -10 11 -10 5 0 7 5 4 10 -3 6 -8 10 -11 10 -2 0
-4 -4 -4 -10z"/>
<path d="M7220 5100 c0 -5 5 -10 11 -10 5 0 7 5 4 10 -3 6 -8 10 -11 10 -2 0
-4 -4 -4 -10z"/>
<path d="M7157 5085 c-5 -11 0 -15 16 -15 12 0 18 4 12 8 -5 4 -13 11 -16 15
-4 4 -9 1 -12 -8z"/>
<path d="M7100 5074 c0 -10 31 -36 37 -31 3 3 -2 13 -10 22 -16 15 -27 19 -27
9z"/>
<path d="M7158 5043 c7 -3 16 -2 19 1 4 3 -2 6 -13 5 -11 0 -14 -3 -6 -6z"/>
<path d="M7096 5014 c-4 -10 -1 -14 6 -12 15 5 23 28 10 28 -5 0 -13 -7 -16
-16z"/>
<path d="M7175 5020 c3 -5 8 -10 11 -10 2 0 4 5 4 10 0 6 -5 10 -11 10 -5 0
-7 -4 -4 -10z"/>
<path d="M7125 5000 c-3 -5 -1 -10 4 -10 6 0 11 5 11 10 0 6 -2 10 -4 10 -3 0
-8 -4 -11 -10z"/>
<path d="M1797 4901 c-3 -14 -1 -18 9 -14 8 3 14 11 14 19 0 21 -17 17 -23 -5z"/>
<path d="M1826 4865 c-3 -9 -6 -22 -5 -28 0 -7 5 -1 10 12 5 13 8 26 5 28 -2
2 -6 -3 -10 -12z"/>
<path d="M1856 4823 c-6 -14 -5 -15 5 -6 7 7 10 15 7 18 -3 3 -9 -2 -12 -12z"/>
<path d="M1376 4242 c-3 -5 1 -9 9 -9 8 0 12 4 9 9 -3 4 -7 8 -9 8 -2 0 -6 -4
-9 -8z"/>
<path d="M2215 4229 c-4 -6 -5 -12 -2 -15 2 -3 7 2 10 11 7 17 1 20 -8 4z"/>
<path d="M2390 4230 c0 -5 5 -10 10 -10 6 0 10 5 10 10 0 6 -4 10 -10 10 -5 0
-10 -4 -10 -10z"/>
<path d="M2430 4229 c0 -5 5 -7 10 -4 6 3 10 8 10 11 0 2 -4 4 -10 4 -5 0 -10
-5 -10 -11z"/>
<path d="M2600 4230 c-8 -5 -10 -10 -5 -10 6 0 17 5 25 10 8 5 11 10 5 10 -5
0 -17 -5 -25 -10z"/>
<path d="M2805 4230 c3 -5 8 -10 11 -10 2 0 4 5 4 10 0 6 -5 10 -11 10 -5 0
-7 -4 -4 -10z"/>
<path d="M2845 4230 c3 -5 8 -10 11 -10 2 0 4 5 4 10 0 6 -5 10 -11 10 -5 0
-7 -4 -4 -10z"/>
<path d="M740 4220 c0 -5 5 -10 10 -10 6 0 10 5 10 10 0 6 -4 10 -10 10 -5 0
-10 -4 -10 -10z"/>
<path d="M1895 4219 c-4 -6 -5 -12 -2 -15 2 -3 7 2 10 11 7 17 1 20 -8 4z"/>
<path d="M2080 4220 c0 -5 5 -10 11 -10 5 0 7 5 4 10 -3 6 -8 10 -11 10 -2 0
-4 -4 -4 -10z"/>
<path d="M2125 4220 c-3 -6 1 -7 9 -4 18 7 21 14 7 14 -6 0 -13 -4 -16 -10z"/>
<path d="M2175 4220 c3 -5 8 -10 11 -10 2 0 4 5 4 10 0 6 -5 10 -11 10 -5 0
-7 -4 -4 -10z"/>
<path d="M2310 4220 c0 -5 5 -10 10 -10 6 0 10 5 10 10 0 6 -4 10 -10 10 -5 0
-10 -4 -10 -10z"/>
<path d="M2650 4226 c0 -2 7 -7 16 -10 8 -3 12 -2 9 4 -6 10 -25 14 -25 6z"/>
<path d="M3035 4210 c-3 -5 1 -10 10 -10 9 0 13 5 10 10 -3 6 -8 10 -10 10 -2
0 -7 -4 -10 -10z"/>
<path d="M3285 4210 c-3 -5 -1 -10 4 -10 6 0 11 5 11 10 0 6 -2 10 -4 10 -3 0
-8 -4 -11 -10z"/>
<path d="M3370 4210 c0 -5 5 -10 10 -10 6 0 10 5 10 10 0 6 -4 10 -10 10 -5 0
-10 -4 -10 -10z"/>
<path d="M3750 4210 c0 -5 5 -10 11 -10 5 0 7 5 4 10 -3 6 -8 10 -11 10 -2 0
-4 -4 -4 -10z"/>
<path d="M780 3400 c-9 -6 -10 -10 -3 -10 6 0 15 5 18 10 8 12 4 12 -15 0z"/>
<path d="M3577 3353 c14 -21 14 -23 -6 -23 -11 0 -21 4 -21 9 0 5 -15 11 -34
13 -19 2 -32 0 -30 -4 3 -4 16 -8 30 -8 17 0 23 -4 18 -12 -4 -7 -4 -10 1 -6
4 4 14 3 20 -2 9 -7 20 -4 36 10 15 11 19 19 10 20 -7 0 -11 6 -8 13 3 7 -3
13 -13 13 -16 0 -16 -2 -3 -23z"/>
<path d="M3615 3370 c-3 -6 1 -7 9 -4 18 7 21 14 7 14 -6 0 -13 -4 -16 -10z"/>
<path d="M3711 3377 c2 -1 13 -9 24 -17 19 -14 19 -14 6 3 -7 9 -18 17 -24 17
-6 0 -8 -1 -6 -3z"/>
<path d="M3253 3355 c0 -8 4 -15 9 -15 4 0 8 4 8 9 0 6 -4 12 -8 15 -5 3 -9
-1 -9 -9z"/>
<path d="M837 3346 c-12 -10 -15 -16 -7 -21 13 -8 23 0 26 20 3 18 4 18 -19 1z"/>
<path d="M3280 3350 c0 -5 5 -10 11 -10 5 0 7 5 4 10 -3 6 -8 10 -11 10 -2 0
-4 -4 -4 -10z"/>
<path d="M3370 3350 c0 -6 7 -10 15 -10 8 0 15 2 15 4 0 2 -7 6 -15 10 -8 3
-15 1 -15 -4z"/>
<path d="M620 3346 c0 -2 8 -10 18 -17 15 -13 16 -12 3 4 -13 16 -21 21 -21
13z"/>
<path d="M666 3337 c7 -19 61 -20 68 -2 6 18 1 19 -24 5 -13 -7 -21 -7 -25 0
-9 15 -25 12 -19 -3z"/>
<path d="M3217 3336 c-4 -10 -1 -13 8 -9 8 3 12 9 9 14 -7 12 -11 11 -17 -5z"/>
<path d="M580 3332 c0 -5 7 -9 15 -9 8 0 15 4 15 9 0 4 -7 8 -15 8 -8 0 -15
-4 -15 -8z"/>
<path d="M910 3326 c-10 -13 -2 -15 53 -14 52 1 64 4 60 15 -5 12 -7 12 -14 2
-6 -10 -11 -10 -22 0 -12 9 -16 9 -20 -1 -4 -10 -7 -11 -18 0 -17 16 -24 15
-39 -2z"/>
<path d="M1046 3325 c-4 -11 2 -15 20 -15 23 0 24 2 10 15 -8 8 -17 15 -19 15
-3 0 -7 -7 -11 -15z"/>
<path d="M3800 3330 c-13 -8 -12 -10 3 -10 9 0 17 5 17 10 0 12 -1 12 -20 0z"/>
<path d="M1105 3320 c-3 -5 -2 -10 4 -10 5 0 13 5 16 10 3 6 2 10 -4 10 -5 0
-13 -4 -16 -10z"/>
<path d="M3388 3323 c6 -2 18 -2 25 0 6 3 1 5 -13 5 -14 0 -19 -2 -12 -5z"/>
<path d="M3615 3320 c4 -6 11 -8 16 -5 14 9 11 15 -7 15 -8 0 -12 -5 -9 -10z"/>
<path d="M3393 3073 c87 -2 227 -2 310 0 84 1 13 3 -158 3 -170 0 -239 -2
-152 -3z"/>
<path d="M1112 3031 c2 -5 -6 -17 -17 -26 -20 -16 -20 -16 2 -5 27 13 36 27
23 35 -6 4 -9 2 -8 -4z"/>
<path d="M1018 2963 c7 -3 16 -2 19 1 4 3 -2 6 -13 5 -11 0 -14 -3 -6 -6z"/>
<path d="M9271 3836 c-34 -19 -50 -54 -51 -111 0 -67 27 -112 73 -120 19 -4
91 -5 161 -3 120 3 129 4 147 27 15 18 19 39 19 93 0 64 -3 72 -29 99 l-29 29
-134 0 c-91 -1 -141 -5 -157 -14z m253 -66 c19 -7 26 -17 26 -37 0 -48 -8 -51
-120 -53 -58 -1 -111 -1 -117 -1 -8 1 -13 15 -13 35 0 64 3 66 105 66 52 0
105 -4 119 -10z"/>
<path d="M7105 3420 c-3 -5 -1 -10 4 -10 6 0 11 5 11 10 0 6 -2 10 -4 10 -3 0
-8 -4 -11 -10z"/>
<path d="M6980 3390 c0 -5 5 -10 11 -10 5 0 7 5 4 10 -3 6 -8 10 -11 10 -2 0
-4 -4 -4 -10z"/>
<path d="M7087 3385 c3 -8 9 -12 14 -9 12 7 11 11 -5 17 -10 4 -13 1 -9 -8z"/>
<path d="M7057 3369 c7 -7 15 -10 18 -7 3 3 -2 9 -12 12 -14 6 -15 5 -6 -5z"/>
<path d="M7255 3360 c3 -5 8 -10 11 -10 2 0 4 5 4 10 0 6 -5 10 -11 10 -5 0
-7 -4 -4 -10z"/>
<path d="M6890 3351 c0 -6 4 -13 10 -16 6 -3 7 1 4 9 -7 18 -14 21 -14 7z"/>
<path d="M7236 3337 c3 -10 9 -15 12 -12 3 3 0 11 -7 18 -10 9 -11 8 -5 -6z"/>
<path d="M9370 3330 c0 -6 7 -10 15 -10 8 0 15 2 15 4 0 2 -7 6 -15 10 -8 3
-15 1 -15 -4z"/>
<path d="M9540 3316 c7 -7 13 -7 20 0 6 6 3 10 -10 10 -13 0 -16 -4 -10 -10z"/>
<path d="M9585 3320 c3 -5 8 -10 11 -10 2 0 4 5 4 10 0 6 -5 10 -11 10 -5 0
-7 -4 -4 -10z"/>
<path d="M4163 3343 c-7 -2 -13 -9 -13 -15 0 -7 5 -6 14 1 10 8 16 9 21 1 3
-5 1 -10 -6 -10 -7 0 -10 -3 -6 -6 10 -11 26 6 20 21 -5 16 -10 17 -30 8z"/>
<path d="M6225 3380 c-3 -5 -1 -10 4 -10 6 0 11 5 11 10 0 6 -2 10 -4 10 -3 0
-8 -4 -11 -10z"/>
<path d="M6068 3343 c7 -3 16 -2 19 1 4 3 -2 6 -13 5 -11 0 -14 -3 -6 -6z"/>
<path d="M5716 3331 c-3 -4 6 -8 20 -9 13 -1 24 0 24 2 0 7 -40 14 -44 7z"/>
<path d="M5910 3330 c-9 -6 -10 -10 -3 -10 6 0 15 5 18 10 8 12 4 12 -15 0z"/>
<path d="M5970 3330 c0 -5 5 -10 11 -10 5 0 7 5 4 10 -3 6 -8 10 -11 10 -2 0
-4 -4 -4 -10z"/>
<path d="M6315 3330 c-3 -5 -1 -10 4 -10 6 0 11 5 11 10 0 6 -2 10 -4 10 -3 0
-8 -4 -11 -10z"/>
<path d="M6073 3323 c9 -2 23 -2 30 0 6 3 -1 5 -18 5 -16 0 -22 -2 -12 -5z"/>
<path d="M6183 3323 c9 -2 23 -2 30 0 6 3 -1 5 -18 5 -16 0 -22 -2 -12 -5z"/>
<path d="M6278 3323 c7 -3 16 -2 19 1 4 3 -2 6 -13 5 -11 0 -14 -3 -6 -6z"/>
<path d="M376 3065 c3 -22 10 -44 15 -49 12 -13 11 -9 -6 44 l-15 45 6 -40z"/>
<path d="M417 3070 c3 -19 10 -42 15 -50 12 -20 -1 49 -13 70 -5 9 -6 2 -2
-20z"/>
<path d="M2143 3259 c-85 -14 -159 -53 -224 -118 -98 -98 -141 -222 -120 -342
24 -141 109 -260 228 -320 64 -33 72 -34 178 -34 98 0 116 3 167 27 122 57
213 182 238 325 43 260 -206 506 -467 462z m124 -139 c85 -19 180 -106 198
-182 6 -21 3 -28 -8 -28 -14 0 -27 -20 -27 -41 0 -5 10 -19 22 -31 20 -20 20
-25 9 -67 -23 -86 -49 -128 -101 -160 -59 -37 -99 -48 -109 -32 -6 8 -14 9
-32 1 -22 -10 -23 -10 -1 -6 12 2 20 0 16 -5 -11 -18 -80 -8 -139 19 -63 30
-115 81 -143 139 -14 30 -14 35 -2 43 13 8 13 10 -1 10 -32 0 -38 80 -12 156
23 67 110 154 178 176 61 20 90 21 152 8z"/>
<path d="M2167 3114 c-3 -4 -2 -15 4 -26 14 -26 53 -20 57 10 3 18 -1 22 -26
22 -16 0 -32 -3 -35 -6z"/>
<path d="M2122 3019 c-83 -42 -124 -116 -120 -220 3 -101 53 -161 146 -175 80
-12 194 53 233 132 60 125 -23 273 -159 281 -44 3 -67 -1 -100 -18z m153 -92
c20 -16 28 -35 32 -69 5 -42 3 -50 -25 -78 -24 -23 -39 -30 -70 -30 -57 0 -70
7 -93 52 -25 50 -18 88 23 123 39 33 96 34 133 2z"/>
<path d="M1990 2959 c0 -5 5 -7 10 -4 6 3 10 8 10 11 0 2 -4 4 -10 4 -5 0 -10
-5 -10 -11z"/>
<path d="M2441 2794 c0 -11 3 -14 6 -6 3 7 2 16 -1 19 -3 4 -6 -2 -5 -13z"/>
<path d="M2268 2583 c7 -3 16 -2 19 1 4 3 -2 6 -13 5 -11 0 -14 -3 -6 -6z"/>
<path d="M8153 3245 c-68 -21 -126 -60 -185 -123 -123 -133 -147 -292 -70
-451 36 -74 123 -161 197 -197 55 -27 69 -29 170 -29 104 0 114 2 176 32 119
59 207 177 227 305 32 204 -85 395 -282 461 -59 20 -173 21 -233 2z m89 -124
c-23 -14 -10 -46 21 -49 32 -4 46 20 26 45 -13 15 -11 16 16 9 150 -38 235
-143 235 -293 0 -46 -3 -53 -19 -53 -11 0 -26 -3 -35 -6 -14 -5 -16 4 -16 58
0 55 -4 71 -30 110 -62 94 -185 126 -268 70 -68 -45 -92 -86 -92 -154 0 -101
51 -181 138 -219 55 -24 96 -24 147 0 39 18 112 89 107 104 -3 9 46 32 54 24
11 -11 -34 -93 -72 -129 -45 -45 -118 -72 -194 -72 -73 -1 -163 36 -100 41 11
1 18 -2 15 -7 -4 -6 2 -7 11 -3 12 4 15 3 10 -6 -6 -9 -3 -9 13 1 20 12 20 13
-15 25 -20 7 -40 10 -45 7 -5 -3 -8 0 -7 6 2 6 -8 19 -22 28 -25 16 -25 16 -7
-4 22 -27 22 -33 -4 -31 -40 3 -99 96 -114 179 -6 33 -5 36 12 32 43 -12 57
53 15 71 -12 5 -22 13 -22 18 0 21 42 86 77 118 54 50 68 60 110 75 45 16 76
19 55 5z m79 -187 c36 -18 59 -67 52 -107 -14 -73 -124 -104 -175 -49 -36 37
-43 73 -24 110 31 60 87 78 147 46z"/>
<path d="M8462 2969 c2 -6 8 -10 13 -10 5 0 11 4 13 10 2 6 -4 11 -13 11 -9 0
-15 -5 -13 -11z"/>
<path d="M9901 3084 c0 -11 3 -14 6 -6 3 7 2 16 -1 19 -3 4 -6 -2 -5 -13z"/>
<path d="M4723 3073 c48 -2 126 -2 175 0 48 1 8 3 -88 3 -96 0 -136 -2 -87 -3z"/>
<path d="M5017 3073 c18 -2 50 -2 70 0 21 2 7 4 -32 4 -38 0 -55 -2 -38 -4z"/>
<path d="M5238 3073 c18 -2 45 -2 60 0 15 2 0 4 -33 4 -33 0 -45 -2 -27 -4z"/>
<path d="M5393 3073 c26 -2 67 -2 90 0 23 2 2 3 -48 3 -49 0 -68 -1 -42 -3z"/>
<path d="M5643 3073 c9 -2 23 -2 30 0 6 3 -1 5 -18 5 -16 0 -22 -2 -12 -5z"/>
<path d="M5713 3073 c9 -2 25 -2 35 0 9 3 1 5 -18 5 -19 0 -27 -2 -17 -5z"/>
<path d="M5928 2873 c6 -2 12 -11 12 -19 0 -18 56 -19 63 -1 3 7 6 5 6 -5 1
-15 -12 -18 -86 -21 -49 -1 4 -3 117 -3 113 0 186 1 163 3 -38 4 -43 7 -43 29
l0 24 -122 -1 c-68 0 -117 -3 -110 -6z"/>
<path d="M4845 2830 c-147 -6 -140 -6 85 -6 135 0 256 2 270 6 30 8 -136 8
-355 0z"/>
<path d="M5788 2833 c6 -2 18 -2 25 0 6 3 1 5 -13 5 -14 0 -19 -2 -12 -5z"/>
<path d="M4453 2823 c9 -2 25 -2 35 0 9 3 1 5 -18 5 -19 0 -27 -2 -17 -5z"/>
<path d="M5327 2823 c18 -2 50 -2 70 0 21 2 7 4 -32 4 -38 0 -55 -2 -38 -4z"/>
<path d="M5568 2823 c6 -2 18 -2 25 0 6 3 1 5 -13 5 -14 0 -19 -2 -12 -5z"/>
<path d="M5708 2823 c12 -2 30 -2 40 0 9 3 -1 5 -23 4 -22 0 -30 -2 -17 -4z"/>
<path d="M436 2171 c-25 -28 -17 -72 17 -91 24 -13 30 -13 55 0 53 30 33 110
-28 110 -15 0 -35 -9 -44 -19z"/>
<path d="M9710 2170 c-11 -11 -20 -29 -20 -40 0 -27 35 -60 63 -60 45 0 76 59
52 96 -19 30 -67 32 -95 4z"/>
</g>
</svg>
